<?xml version="1.0" encoding="utf-8"?>
<!-- Generator: Adobe Illustrator 25.3.1, SVG Export Plug-In . SVG Version: 6.00 Build 0)  -->
<svg version="1.1" id="Layer_2_1_" xmlns="http://www.w3.org/2000/svg" xmlns:xlink="http://www.w3.org/1999/xlink" x="0px" y="0px"
	 viewBox="0 0 164.4 139" style="enable-background:new 0 0 164.4 139;" xml:space="preserve">
<style type="text/css">
	.st0{fill:#FFFFFF;}
	.st1{fill:#020202;}
	.st2{fill:#010101;}
	.st3{fill:#252728;}
	.st4{fill:#CDCDCD;}
	.st5{fill:#EAEAEA;}
	.st6{fill:#0E0E0F;}
	.st7{fill:#0C0C0C;}
	.st8{fill:#11100F;}
	.st9{fill:#E9EAEB;}
	.st10{fill:#FEFEFE;}
	.st11{fill:#050505;}
	.st12{fill:#F7F9F9;}
	.st13{fill:#FAFCFC;}
</style>
<path d="M-107.6-3.5c29,0,57.9,0,86.9,0c0,0.5,0.1,1,0.1,1.5c-2.5,28.5-5.1,56.9-7.6,85.4c-0.1,1.6-0.6,2.4-2.3,2.8
	c-10.6,2.8-21.1,5.9-31.7,8.7c-1.2,0.3-2.7,0.3-4,0c-10.5-2.8-20.9-5.8-31.4-8.7c-1.6-0.4-2.3-1.1-2.4-2.7
	c-1.6-18.5-3.2-37.1-4.9-55.6c-0.9-9.8-1.8-19.5-2.7-29.3C-107.7-2-107.6-2.6-107.6-3.5z M-79.6,25.6c14.3,0,28,0,42,0
	c0.3-3.8,0.6-7.2,0.9-10.8c-18.4,0-36.5,0-54.8,0c0.9,10.7,1.8,21.1,2.9,31.5c0.1,0.6,1.5,1.4,2.3,1.4c6.4,0.1,12.9,0.1,19.3,0.1
	c5.3,0,10.6,0,16.2,0c-0.2,2.6-0.5,4.7-0.6,6.7c-0.3,7.2-0.3,7.2-7.2,9c-2.3,0.6-4.8,1.4-7.1,1.2c-3-0.3-6-1.4-8.9-2.3
	c-0.8-0.3-1.6-1.3-1.8-2.1c-0.5-2.4-0.6-4.8-0.9-7.2c-3.7,0-7.1,0-10.8,0c0.5,5.4,0.9,10.6,1.5,15.8c0.1,0.8,1.2,1.8,2,2
	c3.8,1.2,7.7,1.9,11.4,3.3c6.3,2.4,12.4,2.5,18.6,0.1c3.4-1.3,7-2.1,10.5-3c2-0.5,2.6-1.5,2.8-3.5c0.5-6.4,1.1-12.8,1.7-19.2
	c0.3-3.9,0.6-7.8,0.9-11.9c-13.6,0-26.7,0-40,0C-78.9,33-79.2,29.6-79.6,25.6z"/>
<path d="M-63.2-11.1c0-5.5,0-10.7,0-15.9c5.2-2.3,7.2,1.4,9.2,5.3c2.2-3.6,3.7-7.7,9.1-5.4c0,5.1,0,10.4,0,16c-1.6,0-3.2,0-5.1,0
	c0-2.3,0-4.6,0-6.9c-0.2-0.1-0.4-0.1-0.6-0.2c-1.1,1.6-2.1,3.1-3.3,4.9c-1.2-1.7-2.3-3.2-3.8-5.4c0,3,0,5.2,0,7.7
	C-59.7-11.1-61.3-11.1-63.2-11.1z"/>
<path d="M-99.5-27.4c1.8,0,3.3,0,5.2,0c0,1.7,0,3.3,0,5.1c1.8,0,3.4,0,5,0c0.1-1.7,0.2-3.4,0.3-5.1c1.8,0,3.3,0,5.1,0
	c0,5.4,0,10.7,0,16.3c-1.6,0-3.3,0-5.1,0c-0.1-1.7-0.2-3.5-0.4-5.3c-1.7,0-3.1,0-4.8,0c0,1.8,0,3.4,0,5.3c-1.9,0-3.5,0-5.4,0
	C-99.5-16.4-99.5-21.8-99.5-27.4z"/>
<path d="M-76.2-21.9c-1.8-0.1-3.2-0.2-4.7-0.2c0-1.7,0-3.3,0-5.1c4.9,0,9.7,0,14.9,0c0,1.5,0,3.1,0,5c-1.4,0.1-2.9,0.2-4.7,0.4
	c0,3.6,0,7.2,0,10.8c-1.9,0-3.5,0-5.4,0C-76.2-14.6-76.2-18.1-76.2-21.9z"/>
<path d="M-28.8-11c-4.3,0-8.5,0-12.9,0c0-5.4,0-10.7,0-16.3c1.6,0,3.3,0,5.2,0c0,3.5,0,7,0,10.9c2.7,0,5.1,0,7.7,0
	C-28.8-14.4-28.8-12.8-28.8-11z"/>
<path class="st0" d="M-79.6,25.6c0.3,4,0.6,7.4,1,11c13.3,0,26.4,0,40,0c-0.3,4.2-0.5,8-0.9,11.9c-0.5,6.4-1.2,12.8-1.7,19.2
	c-0.1,2-0.8,3-2.8,3.5c-3.6,0.8-7.2,1.6-10.5,3c-6.3,2.4-12.4,2.4-18.6-0.1c-3.7-1.4-7.6-2.1-11.4-3.3c-0.8-0.3-1.9-1.3-2-2
	c-0.6-5.2-1-10.4-1.5-15.8c3.6,0,7.1,0,10.8,0c0.3,2.4,0.4,4.9,0.9,7.2c0.2,0.8,1,1.8,1.8,2.1c2.9,1,5.9,2.1,8.9,2.3
	c2.3,0.2,4.8-0.5,7.1-1.2c6.9-1.8,6.9-1.9,7.2-9c0.1-2.1,0.3-4.1,0.6-6.7c-5.5,0-10.9,0-16.2,0c-6.4,0-12.9,0-19.3-0.1
	c-0.8,0-2.3-0.8-2.3-1.4c-1-10.4-1.9-20.8-2.9-31.5c18.3,0,36.4,0,54.8,0c-0.3,3.5-0.6,7-0.9,10.8C-51.5,25.6-65.3,25.6-79.6,25.6z"
	/>
<path d="M-158.2,12.4c10.9,0,21.7,0.1,32.6,0c2.2,0,2.6,0.4,2.4,2.7c-2,22.2-4,44.4-5.8,66.6c-0.2,2.3-1,3.4-3.3,3.9
	c-8,2.1-16,4.3-23.9,6.6c-1.3,0.4-2.6,0.5-3.9,0.1c-8.2-2.3-16.3-4.6-24.5-6.8c-2.1-0.5-2.6-1.6-2.8-3.6
	c-1.9-22.4-3.8-44.8-5.9-67.2c-0.2-2.2,0.5-2.3,2.2-2.3C-180.1,12.4-169.2,12.4-158.2,12.4z"/>
<path class="st1" d="M-143.9,6.1c-0.2,0-0.4,0.1-0.6,0c-1.9-0.7-5.6,1.6-5.7-1.4c-0.1-3.4,3.6-0.9,5.5-1.6c0.6-0.2,1.4,0,2.1,0
	c0.9,0,1.6,0,1.5-1.3c-0.1-1.2-0.7-1.3-1.6-1.3c-1.9,0-3.9-0.1-5.8,0c-1.4,0.1-1.6-0.5-1.7-1.8c-0.3-5.9-0.3-5.9,5.3-5.9
	c2,0,4.1,0.1,6.1,0c1.4-0.1,1.7,0.5,1.7,1.8c0,1.3-0.5,1.5-1.6,1.5c-2.3-0.1-4.5,0-6.8,0c-0.7,0-1.5,0-1.4,1.1
	c0.1,0.9,0.8,0.8,1.4,0.8c2,0,4.1,0.1,6.1,0c1.7-0.1,2,0.5,2,2.1C-137.1,6.1-137,6.1-143.9,6.1z"/>
<path class="st2" d="M-158.3,6.1c-1.7,0-3.5,0-5.2,0c-1.1,0-1.7-0.2-1.6-1.5c0-1.3,0.5-1.6,1.7-1.5c2,0.1,4.1,0,6.1,0
	c0.8,0,1.7,0.2,1.7-1.1c0.1-1.4-0.8-1.4-1.8-1.4c-1,0-2,0-3.1,0c-4.3,0-4.2,0-4.4-4.3c-0.1-2.6,0.4-3.7,3.3-3.4
	c2.7,0.3,5.5,0.1,8.3,0c1.5-0.1,1.6,0.7,1.6,1.9c0.1,1.4-0.7,1.4-1.7,1.4c-2.3,0-4.5,0-6.8,0c-0.6,0-1.2,0.1-1.2,1
	c0,0.9,0.6,0.9,1.2,0.9c2.1,0,4.3,0.1,6.4,0c1.5-0.1,1.8,0.5,1.9,1.9C-151.6,6.1-151.5,6.1-158.3,6.1z"/>
<path class="st2" d="M-173.1,6.1c-6.3,0-6.3,0-6.3-6.3c0-6.8,0-6.8,6.7-6.8c1.4,0,2.9,0.1,4.3,0c1.4-0.1,2,0.3,2,1.8
	c0,1.7-1,1.4-2,1.4c-1.3,0-2.7,0.2-4,0c-2.7-0.4-3.3,0.6-3.4,3.3c-0.1,3.2,0.9,4.1,3.9,3.7c1.4-0.2,2.9,0,4.3-0.1
	c1.2-0.1,1.3,0.6,1.3,1.5c0,0.9,0,1.6-1.3,1.5C-169.5,6.1-171.3,6.1-173.1,6.1z"/>
<path class="st3" d="M-158.5,26.5c0.3-2.5-1.1-5.8,0.6-7.4c1.8-1.7,5.1-0.5,7.7-0.6c5.9-0.1,11.9,0.1,17.8-0.1
	c2.3-0.1,3.1,0.7,2.9,3c-0.6,6.2-1.2,12.4-1.7,18.6c-0.5,5.1-0.9,10.2-1.3,15.3c-0.6,7.7-1.3,15.5-1.8,23.2
	c-0.1,1.3-0.8,1.8-1.9,2.1c-6.6,1.9-13.3,3.9-19.9,5.7c-1.6,0.4-2.2-0.3-2.2-2c0.1-2.2,0-4.3-0.1-6.5c0.2-0.3,0.5-0.5,0.8-0.6
	c5.4-1.3,10.7-2.9,16-4.3c2.4-0.6,3.2-1.9,3.3-4.4c0.4-6.4,0.8-12.7,1.5-19c0.2-2.4-0.5-3.2-2.8-3.1c-3.7,0.1-7.4,0.1-11.1,0
	c-1.2,0-3.1,0.4-3.4-1.2c-0.3-1.4,1.4-1.8,2.5-2.3c3.8-1.7,7.7-3.5,11.5-5.1c4.6-2,5.8-5,4-9.9c-1-0.8-2.2-0.6-3.3-0.6
	c-5.1,0-10.2,0-15.3,0C-156.1,27.3-157.5,27.6-158.5,26.5z"/>
<path class="st4" d="M-158.5,26.5c7,0,14,0,21,0.1c0.9,0,2.1-0.5,2.8,0.6c-1.2,1.1-2.7,0.9-4.1,0.9c-5.1,0-10.2,0-15.3,0
	c-3.2,0-3.5,0.3-3.5,3.6c-0.1,5.6,0,11.3,0,16.9c0,1.4,0.1,2.9-0.3,4.3c-0.1,0.4-0.4,0.7-0.7,0.9c-6.1,0-12.3-0.1-18.4-0.1
	c-1.9,0-2.6-0.5-2.9-2.5c-0.8-6.1-0.8-6.2,4.7-8.6c5.1-2.3,10.3-4.5,15.3-7.5c-5.7,0-11.5-0.2-17.2,0.1c-3.4,0.2-4.6-0.9-4.8-4.2
	c-0.3-4.4-0.5-4.4,3.9-4.4C-171.4,26.6-165,26.5-158.5,26.5z"/>
<path class="st4" d="M-157.9,77.8c-0.2,0-0.4,0.1-0.6,0.1c-5.6-1.3-11.1-2.6-16.7-4c-1.5-0.4-2.4-0.9-2.5-2.8
	c-0.1-3.4-0.6-6.7-1-10.1c0-0.3-0.1-0.8,0-0.9c2.2-2,4.8-0.4,7.2-0.9c1.2-0.2,1.8,0.3,2,1.6c0.7,5.7,0.8,5.7,6.2,6.8
	c1.6,0.3,3.2,0.5,4.8,0.8c0.5-0.4,0.9-0.3,1.3,0.1C-158,71.5-157.3,74.7-157.9,77.8z"/>
<path class="st3" d="M-157.3,68.6c-0.4-0.1-0.8-0.1-1.2-0.2c0-4.9,0-9.8,0-14.7c0,0,0-0.3,0-0.3c3.7-1.5,7.4-0.8,11.1-0.5
	c1.5,0.1,1.9,1.4,1.8,2.8c0,1.4-0.3,2.8-0.4,4.3c-0.1,2.2,0.8,5.1-1.6,6.2C-150.6,67.6-153.7,69.6-157.3,68.6z"/>
<path class="st5" d="M-157.3,68.6c0.3-0.1,0.6-0.1,0.9-0.2c9.7-2.8,9.6-2.8,10.1-12.8c0.1-1.7-0.6-2.1-2.1-2
	c-3.4,0-6.7-0.1-10.1-0.1c0-7.9,0.1-15.8,0-23.6c0-2.2,0.6-2.8,2.8-2.8c7,0.1,14.1,0,21.1,0.1c0.5,8.9,0.5,8.9-7.5,12.5
	c-3.7,1.7-7.5,3.3-11.2,5c-0.1,0.1-0.2,0.3-0.6,0.9c5.3,0,10.3,0.1,15.4-0.1c2.4-0.1,2.9,0.8,2.7,3c-0.7,7.3-1.2,14.7-1.7,22.1
	c-0.1,1.3-0.3,2.4-1.8,2.8c-5.8,1.5-11.6,3.1-17.4,4.6c-0.3,0.1-0.7-0.1-1.1-0.2C-158.6,74.6-159.5,71.5-157.3,68.6z"/>
<path class="st6" d="M-190.3-175.1c0,1.6,0,3.1,0,4.7c0,0.3-0.1,0.3-0.3,0.3c-2.3,0-4.7,0.1-7,0.1c-0.2,0-0.4,0-0.8,0
	c0.8,0.9,1.6,1.7,2.4,2.5c2,2.1,3.9,4.2,5.9,6.3c0.1,0.2,0.2,0.3,0.2,0.5c0,1.3,0,2.5,0,3.8c0,0.2-0.1,0.3-0.3,0.3
	c-5.7,0-11.3,0-17,0c-0.2,0-0.3-0.1-0.3-0.3c0-1.5,0-2.9,0-4.4c0-0.3,0.1-0.3,0.3-0.3c2.2,0,4.4,0,6.6-0.1c0.4,0,0.7,0,1.1-0.1
	c0.1,0,0.2,0,0.2-0.1s-0.1-0.2-0.1-0.2c-0.7-0.8-1.3-1.5-2-2.3c-2-2.1-3.9-4.3-5.9-6.4c-0.2-0.2-0.2-0.3-0.2-0.6c0-1.2,0-2.4,0-3.5
	c0-0.1,0-0.2,0-0.4C-201.8-175.1-196.1-175.1-190.3-175.1z"/>
<path class="st6" d="M-210.5-175.1c0,0.1,0,0.3,0,0.4c0,5.9,0,11.8,0,17.8c0,0.3-0.1,0.4-0.4,0.4c-4.8,0-9.7,0-14.5,0
	c-0.3,0-0.4-0.1-0.4-0.4c0-1.9,0-3.7,0-5.6c0-0.3,0.1-0.3,0.3-0.3c2.8,0,5.5,0,8.3,0c0.3,0,0.4-0.1,0.4-0.4c0-4,0-7.9,0-11.9
	C-214.7-175.1-212.6-175.1-210.5-175.1z"/>
<path class="st7" d="M-207.8-147.9c16.2,0,32.4,0,48.5,0c0.6,0,0.5-0.1,0.5,0.5c0,1-0.1,2-0.2,2.9c-0.1,0.9-0.2,1.8-0.2,2.8
	c-0.1,1.2-0.2,2.4-0.3,3.6c-0.1,0.9-0.1,1.8-0.2,2.6c-0.1,1.2-0.2,2.4-0.3,3.6c-0.1,0.9-0.1,1.8-0.2,2.6c-0.1,1.2-0.2,2.4-0.3,3.6
	c-0.1,0.9-0.1,1.7-0.2,2.6c-0.1,1.2-0.2,2.4-0.3,3.6c-0.1,1.1-0.2,2.3-0.3,3.4c-0.1,1.2-0.2,2.4-0.3,3.5c-0.1,0.9-0.1,1.7-0.2,2.6
	c-0.1,1.2-0.2,2.4-0.3,3.6c-0.1,0.8-0.1,1.7-0.2,2.5c-0.1,1.2-0.2,2.4-0.3,3.6c-0.1,0.9-0.1,1.7-0.2,2.6c-0.1,1.2-0.2,2.4-0.3,3.5
	c-0.1,0.9-0.1,1.7-0.2,2.6c-0.1,1.2-0.2,2.3-0.3,3.5c-0.1,0.9-0.1,1.7-0.2,2.6c-0.1,1.2-0.2,2.4-0.3,3.6c-0.1,0.9-0.1,1.7-0.2,2.6
	c-0.1,1.2-0.2,2.3-0.3,3.5c-0.1,0.8-0.1,1.7-0.2,2.5c-0.1,1.2-0.2,2.4-0.3,3.5c-0.1,0.8-0.1,1.7-0.2,2.5c-0.1,1.2-0.2,2.4-0.3,3.6
	c-0.1,1.1-0.2,2.2-0.3,3.3c-0.1,1.1-0.2,2.3-0.3,3.4c-0.1,1.1-0.2,2.2-0.3,3.2c-0.1,1.1-0.2,2.3-0.3,3.4c-0.1,0.6-0.1,1.1-0.1,1.7
	c0,0.5-0.2,0.8-0.7,1c-1.2,0.5-2.5,0.9-3.8,1.3c-4.9,1.5-9.9,2.8-14.8,4.2c-3.2,0.9-6.3,1.8-9.5,2.6c-3.8,1-7.6,2.1-11.4,3.1
	c-0.4,0.1-0.7,0-1.1-0.1c-5.9-1.6-11.8-3.2-17.6-4.9c-6.2-1.7-12.4-3.5-18.7-5.2c-0.9-0.3-1.8-0.5-2.7-0.8c-0.2-0.1-0.3-0.1-0.3-0.3
	c-0.2-1.9-0.4-3.8-0.5-5.7c-0.1-1.4-0.2-2.8-0.4-4.2c-0.1-1.4-0.3-2.8-0.4-4.1c-0.1-1.1-0.2-2.3-0.3-3.4c-0.1-1.4-0.3-2.8-0.4-4.1
	c-0.1-1.1-0.2-2.3-0.3-3.4c-0.1-1.1-0.2-2.3-0.3-3.4c-0.1-1.1-0.2-2.3-0.3-3.4c-0.1-1.1-0.2-2.3-0.3-3.4c-0.1-0.9-0.1-1.7-0.2-2.6
	c-0.1-1.2-0.2-2.3-0.3-3.5c-0.1-0.9-0.1-1.8-0.2-2.6c-0.1-1.1-0.2-2.3-0.3-3.4c-0.1-0.9-0.2-1.8-0.2-2.6c-0.1-1.2-0.2-2.3-0.3-3.5
	c-0.1-0.9-0.2-1.7-0.2-2.6c-0.1-1.2-0.2-2.4-0.3-3.5c-0.1-0.9-0.1-1.7-0.2-2.6c-0.1-1.2-0.2-2.4-0.3-3.5c-0.1-1.1-0.2-2.3-0.3-3.4
	c-0.1-1.2-0.2-2.3-0.3-3.5c-0.1-0.9-0.1-1.7-0.2-2.6c-0.1-1.2-0.2-2.4-0.3-3.6c-0.1-0.9-0.1-1.8-0.2-2.6c-0.1-1.2-0.2-2.4-0.3-3.5
	c-0.1-0.9-0.1-1.8-0.2-2.6c-0.1-1.2-0.2-2.4-0.3-3.6c-0.1-0.9-0.1-1.8-0.2-2.7c-0.1-1.2-0.2-2.5-0.3-3.7c-0.1-0.8-0.1-1.6-0.1-2.4
	c0-0.1,0-0.2,0.2-0.2c0.1,0,0.2,0,0.3,0C-240.2-147.9-224-147.9-207.8-147.9z"/>
<path class="st8" d="M-224.3-135.2c0.1-0.1,0.3-0.1,0.4-0.1c5.2,0,10.4,0,15.6,0c0.5,0,0.5,0,0.5-0.5c0-1.2,0-2.4,0-3.7
	c0-0.4,0-0.4,0.4-0.4c9.9,0,19.9,0,29.8,0c3.1,0,6.2,0,9.4,0c0.3,0,0.4,0.1,0.4,0.4c0,1-0.1,2-0.2,3.1c-0.1,0.7-0.1,1.4-0.1,2.2
	c-0.1,0.9-0.2,1.9-0.3,2.8c-0.1,0.6-0.1,1.2-0.1,1.9c-0.1,1-0.2,2-0.3,3c-0.1,0.6-0.1,1.3-0.1,1.9c-0.1,0.9-0.2,1.8-0.3,2.7
	c-0.1,0.6-0.1,1.3-0.1,1.9c-0.1,0.9-0.2,1.8-0.3,2.7c-0.1,0.6-0.1,1.2-0.2,1.9c-0.1,0.9-0.2,1.9-0.3,2.8c-0.1,0.6-0.1,1.2-0.1,1.9
	c-0.1,0.9-0.2,1.8-0.3,2.7c-0.1,0.6-0.1,1.2-0.2,1.8c-0.1,0.9-0.2,1.9-0.3,2.8c-0.1,0.6-0.1,1.2-0.1,1.8c-0.1,0.9-0.2,1.8-0.3,2.7
	c-0.1,0.6-0.1,1.2-0.2,1.8c-0.1,0.9-0.2,1.8-0.3,2.7c-0.1,0.6-0.1,1.2-0.1,1.8c-0.1,0.9-0.2,1.7-0.3,2.6c-0.1,0.6-0.1,1.2-0.2,1.8
	c-0.1,0.9-0.2,1.8-0.3,2.7c-0.1,0.5-0.1,1.1-0.1,1.6c-0.1,0.9-0.2,1.9-0.3,2.8c-0.1,0.6-0.1,1.2-0.1,1.8c-0.1,0.9-0.2,1.7-0.3,2.5
	c-0.1,0.6-0.1,1.2-0.2,1.7c-0.1,0.8-0.2,1.7-0.3,2.5c-0.1,0.6-0.1,1.2-0.2,1.8c-0.1,0.9-0.2,1.7-0.3,2.6c-0.1,0.5-0.1,1.1-0.1,1.6
	c-0.1,0.9-0.2,1.8-0.3,2.7c-0.1,0.8-0.1,1.6-0.2,2.4c-0.1,0.8-0.2,1.6-0.3,2.4c-0.1,0.5-0.1,1.1-0.2,1.6c-0.1,0.8-0.2,1.6-0.3,2.4
	c0,0.4-0.1,0.8-0.1,1.2c0,0.3-0.2,0.4-0.4,0.4c-0.9,0.3-1.8,0.6-2.8,0.9c-1.6,0.5-3.2,0.9-4.7,1.4c-2.3,0.6-4.5,1.3-6.8,1.9
	c-2.5,0.7-4.9,1.4-7.4,2.1c-2,0.5-4,1.1-5.9,1.6c-1.3,0.3-2.6,0.7-3.8,1c-0.3,0.1-0.4,0-0.4-0.3c-0.3-3.9-0.1-7.8-0.1-11.6
	c0-0.3-0.1-0.5-0.3-0.6c0.1-0.1,0.2-0.1,0.3-0.2c4.3-1.1,8.6-2.3,12.9-3.5c3.5-1,7-2,10.5-3.1c0,0,0.1,0,0.1,0
	c0.4-0.1,0.7-0.3,1.1-0.4c0.3-0.1,0.4-0.2,0.4-0.5c0.1-1.1,0.2-2.1,0.3-3.2c0.2-1.8,0.4-3.6,0.5-5.4c0.2-1.6,0.3-3.2,0.4-4.8
	c0.1-1.6,0.3-3.3,0.4-4.9c0.1-1.4,0.3-2.8,0.4-4.2c0.1-1.4,0.2-2.7,0.4-4.1c0.1-1.3,0.2-2.6,0.4-4c0.2-2,0.4-3.9,0.6-5.9
	c0-0.2,0.2-0.4-0.1-0.5c-0.3-0.1-0.6-0.1-0.9-0.1c-0.6,0-1.2-0.1-1.9-0.1c-8.3-0.1-16.7,0-25-0.1c-0.2,0-0.4,0-0.6-0.1
	c-0.1-0.2-0.1-0.4-0.1-0.7c0-5.9,0-11.8,0-17.6c0-0.4,0-0.7,0-1.1c0,0,0-0.1,0.1-0.1c0.1,0,0.2,0,0.3,0c0.1,0,0.2,0,0.3,0
	c2,0,4.1,0.1,6.1,0.1c1.3,0,2.6,0.1,3.9,0.2c1.1,0.1,2.2,0.1,3.3,0.3c0.1,0,0.2,0,0.4,0.1c0.4,0.1,0.6,0.2,0.6,0.6
	c0.3,1.7,0.4,3.5,0.6,5.3c0.2,1.7,0.3,3.3,0.5,5c0,0.5,0.1,0.9,0.1,1.4c0,0.2,0.2,0.3,0.3,0.3c0.3,0.1,0.5,0.1,0.8,0.1
	c0.1,0,0.2,0,0.4,0c0.6,0.1,1.1,0,1.7,0c3,0,6,0,9,0c0.1,0,0.3,0.1,0.4-0.1c0-0.6-0.1-1.2-0.1-1.8c-0.1-1.4-0.3-2.8-0.4-4.2
	c-0.1-1.4-0.3-2.8-0.4-4.2c-0.1-1.4-0.2-2.7-0.4-4.1c-0.1-1.4-0.3-2.8-0.4-4.2c-0.1-1.2-0.2-2.3-0.3-3.5c-0.1-1.2-0.2-2.3-0.3-3.5
	c0-0.9-0.1-0.8-0.9-0.8c-3.4-0.1-6.7,0-10.1-0.1c-3.3,0-6.7,0-10,0c-0.1,0-0.2,0-0.3,0c-0.2-0.1-0.4-0.1-0.6-0.1
	c-3.4,0-6.8,0-10.2,0c-0.3,0-0.6,0-0.9,0c-1.7,0-3.4,0-5,0c-1.4,0-2.9,0-4.3,0C-224.1-135.2-224.2-135.1-224.3-135.2z"/>
<path class="st9" d="M-207.6-121.9c-0.1,0-0.1,0-0.2-0.1c-0.2,0-0.5,0-0.7-0.1c-0.1-0.1-0.2,0.1-0.4,0.2c-0.3,0.1-0.7,0-1,0
	c-0.3,0-0.7,0-1-0.1c-0.2-0.1-0.2,0.1-0.4,0.2c-0.4,0.1-0.9,0-1.3,0c-0.3,0-0.6,0-0.8-0.1c-0.2-0.1-0.3,0.1-0.4,0.2
	c-0.3,0.1-0.7,0-1,0c-0.2,0-0.4,0-0.6-0.1c-0.2-0.1-0.3,0.1-0.5,0.2c-0.3,0.1-0.7,0-1,0c-0.1,0-0.3,0-0.4-0.1
	c-0.2-0.1-0.3,0-0.5,0.1c-0.3,0.1-0.5,0-0.8,0c-0.2,0-0.5,0-0.7-0.1c-0.2-0.1-0.2,0.1-0.2,0.2c-0.1,0.9-0.2,1.7-0.3,2.6
	c-0.1,0.2-0.2,0.3-0.1,0.5c0,0.1,0,0.2,0,0.2c-0.1,0.1-0.1,0.3,0,0.5c0,0.1,0,0.2,0,0.2c-0.2,0.1-0.1,0.3,0,0.4c0,0.1,0,0.2,0,0.2
	c-0.2,0.1-0.1,0.3,0,0.4c0,0.1,0,0.2,0,0.2c-0.2,0.2,0,0.3,0,0.5c0,0.1,0,0.1,0,0.2c-0.2,0.2,0,0.3,0,0.5c0,0.1,0,0.2,0,0.2
	c-0.2,0.1,0,0.3,0,0.5c0,0.1,0,0.1,0,0.2c-0.2,0.2,0,0.3,0,0.5c0,0.1,0,0.2,0,0.2c-0.2,0.1-0.1,0.3,0,0.5c0,0.1,0,0.1,0,0.2
	c-0.2,0.2-0.1,0.3,0,0.5c0,0.1,0,0.2,0,0.2c-0.2,0.2-0.1,0.3,0,0.5c0,0.1,0,0.2,0,0.2c-0.2,0.2-0.1,0.3,0,0.5c0,0.1,0,0.2,0,0.2
	c-0.2,0.1-0.1,0.3,0,0.5c0,0.1,0,0.2,0,0.3c-0.2,0.1-0.1,0.3,0,0.5c0,0.1,0,0.2,0,0.3c-0.2,0.1-0.1,0.3,0,0.5c0,0.1,0,0.2,0,0.3
	c-0.2,0.1-0.1,0.3,0,0.5c0,0.1,0,0.2,0,0.3c-0.2,0.1-0.1,0.3,0,0.4c0,0.1,0,0.2,0,0.2c-0.1,0.1-0.1,0.3,0,0.5c0,0.1,0,0.2,0,0.3
	c-0.1,0.2-0.1,0.3,0,0.5c0,0.3-0.1,0.6-0.1,0.9c-0.1,0.2-0.1,0.3-0.1,0.5c0,0.1,0,0.2,0,0.3c-0.2,0.2,0,0.3,0,0.5
	c0,0.6,0,0.6,0.6,0.6c3.9,0,7.9,0,11.8,0c0.2,0,0.4,0,0.6,0.1c0.2,0.2,0.1,0.4,0.1,0.6c0,3.6,0,7.3,0,10.9c0,0.7,0,0.7,0.7,0.7
	c4.7,0,9.4,0,14.2,0c0.7,0,0.7,0,0.6,0.7c-0.2,1.1-0.3,2.2-0.4,3.3c-0.2,1.7-0.3,3.4-0.5,5.2c-0.2,1.8-0.3,3.6-0.6,5.3
	c-0.1,0.4-0.1,0.8-0.2,1.2c-0.1,0.3-0.3,0.6-0.6,0.7c-1,0.4-2.1,0.7-3.2,1c-3.2,0.9-6.4,1.7-9.6,2.6c-0.5,0.1-0.5,0.1-0.5,0.6
	c0,3,0,6.1,0,9.1c0,0.7,0,1.5,0.1,2.2c0.1,0.5,0.1,0.5,0.6,0.4c3.1-0.8,6.1-1.6,9.2-2.4c3.7-1,7.4-2,11.1-3.1
	c0.8-0.2,1.5-0.5,2.3-0.7c0.1,0,0.3-0.1,0.4-0.1c0.1,0,0.1,0.1,0,0.2c-3.3,1.1-6.6,2-9.9,2.9c-4.4,1.2-8.8,2.5-13.2,3.6
	c-0.2,0.1-0.5,0.1-0.7,0.2c-5.1-1.3-10.1-2.8-15.2-4.2c-3.1-0.9-6.2-1.8-9.3-2.7c-0.3-0.1-0.5-0.3-0.5-0.6c-0.2-1.3-0.4-2.7-0.6-4.1
	c-0.1-1.2-0.3-2.3-0.4-3.5c-0.1-1-0.2-2.1-0.3-3.1c-0.1-1.2-0.2-2.3-0.3-3.5c-0.1-1.5-0.3-3.1-0.2-4.6c0-0.2,0.1-0.2,0.3-0.2
	c4,0,8,0,12,0c0.2,0,0.3,0.1,0.3,0.3c0.1,0.8,0.2,1.6,0.2,2.5c0.1,1.2,0.2,2.3,0.3,3.5c0.1,0.9,0.1,1.8,0.2,2.6
	c0,0.2,0.1,0.4,0.1,0.6c0,0.2,0.1,0.3,0.3,0.3c3.5,0.9,6.9,1.9,10.4,2.8c0.9,0.2,1.7,0.4,2.6,0.6c0.1,0,0.1,0,0.2,0
	c0.3-0.1,0.7-0.2,1.1-0.2c4-0.9,7.9-2,11.9-3.2c0.1,0,0.2-0.1,0.3-0.1c0.3-0.1,0.4-0.2,0.5-0.5c0.1-0.8,0.2-1.5,0.3-2.3
	c0.2-1.6,0.3-3.2,0.5-4.8c0.1-1.4,0.2-2.7,0.4-4.1c0.1-1.1,0.2-2.3,0.4-3.4c0.1-0.5,0.1-0.5-0.4-0.5c-4.6,0-9.1,0-13.7,0
	c-0.2,0-0.4,0-0.6-0.1c-0.2,0-0.3,0-0.5,0c-8.7,0-17.5,0-26.2,0c-0.5,0-0.5,0-0.5-0.5c0-0.2,0-0.3,0-0.5c0.2-0.1,0-0.3,0-0.4
	c0.1-1,0.1-2,0.2-3c0.1-0.5,0.1-1,0.1-1.5c0.1-0.1,0-0.3,0.1-0.4c0-0.1,0-0.3,0-0.4c0.2-0.1,0-0.3,0.1-0.4c0-0.4,0.1-0.8,0.1-1.1
	c0.1-0.1,0-0.2,0-0.4c0-0.1,0-0.3,0-0.4c0.1-0.1,0-0.3,0.1-0.4c0-0.4,0-0.8,0.1-1.1c0.1-0.1,0-0.2,0-0.4c0.1-0.7,0.1-1.3,0.2-2
	c0.1-0.1,0-0.3,0.1-0.4c0-0.4,0.1-0.8,0.1-1.1c0.1-0.1,0-0.2,0-0.4c0-0.1,0-0.3,0-0.4c0.1-0.1,0-0.3,0.1-0.4c0-0.4,0-0.8,0.1-1.1
	c0.1-0.1,0-0.2,0-0.4c0-0.7,0.1-1.3,0.2-2c0.1-0.1,0-0.3,0.1-0.4c0-0.9,0.1-1.8,0.2-2.8c0-0.2,0-0.4,0.1-0.6c0.1-0.1,0-0.2,0-0.4
	c0-0.1,0-0.3,0-0.4c0.1-0.1,0-0.2,0-0.4c0-0.1,0-0.3,0-0.4c0.1-0.1,0-0.2,0-0.4c0-0.1,0-0.3,0-0.4c0.1-0.1,0-0.2,0-0.4
	c0-0.4,0.1-0.8,0.1-1.1c0.1-0.1,0-0.3,0.1-0.4c0-0.1,0-0.2,0-0.3c0.1-0.1,0-0.3,0.1-0.4c0-0.1,0-0.2,0-0.3c0.1-0.1,0-0.3,0.1-0.4
	c0.1-0.6,0.1-1.3,0.2-1.9c0.1-1,0.2-2.1,0.3-3.1c0.1-0.7,0.1-1.3,0.2-2c0.1-0.1,0-0.2,0-0.4c0-0.6,0.1-1.2,0.2-1.8
	c0.1-0.1,0-0.2,0-0.4c0-0.1,0-0.3,0-0.4c0.1-0.1,0-0.2,0-0.4c0.1-0.6,0.1-1.1,0.2-1.7c0.1-0.1,0-0.2,0-0.4c0-0.1,0-0.2,0-0.3
	c0.1-0.1,0-0.2,0-0.4c0.1-0.8,0.1-1.5,0.2-2.3c0-0.2,0-0.5,0.1-0.7c0.1-0.1,0-0.2,0.1-0.3c0-0.1,0.1-0.1,0.2-0.1
	c0.1-0.1,0.3,0.1,0.4-0.1c0.1,0,0.1,0,0.2,0c0.1,0,0.2,0,0.4,0c0.1,0,0.2,0,0.3-0.1c0.2,0,0.4,0,0.6,0c0.3,0,0.7-0.1,1,0
	c0.2,0.1,0.3,0,0.4-0.1c0.6,0,1.2,0,1.8,0c0.9-0.1,1.9,0,2.8,0c0.8,0,1.7,0.2,2.5,0.1c0.2,0,0.5,0,0.6-0.2c1.7,0,3.4,0,5,0
	c0.2,0.1,0.4,0.1,0.6,0.2c1.2,0.1,2.5-0.1,3.7-0.1c0.1,0,0.2,0,0.3,0c2.2,0,4.5,0,6.7,0c0.1,0,0.2,0,0.4,0c1.4,0,2.8,0,4.2,0
	c2,0,4.1,0,6.1,0c0.1,0.1,0.1,0.2,0,0.2c-0.2,0.1-0.4,0.1-0.6,0.1c-4.6,0-9.2,0-13.8,0c-0.7,0-0.7,0-0.7,0.6c0,3.8,0,7.5,0,11.3
	c0,0.1,0,0.2,0,0.3c0,0.3,0.1,0.4,0.4,0.4c0.4,0,0.9,0,1.3,0.1c0.1,0,0.2,0,0.3,0.1c0.1,0.2-0.1,0.3-0.2,0.3
	C-206.5-121.8-207.1-121.8-207.6-121.9z"/>
<path class="st8" d="M-207.8-89.9c0.7,0,1.3,0,2,0c4.2,0,8.4,0,12.6,0c0.3,0,0.4,0,0.3,0.4c-0.2,1.3-0.3,2.7-0.5,4
	c-0.1,1.2-0.2,2.3-0.3,3.5c-0.1,1.1-0.2,2.3-0.3,3.4c-0.1,1.1-0.2,2.3-0.4,3.4c0,0.3-0.1,0.6-0.1,0.9c0,0.2-0.2,0.2-0.4,0.3
	c-1,0.3-2.1,0.6-3.1,0.9c-3,0.8-6.1,1.7-9.1,2.4c-0.4,0.1-0.7,0.2-1.1,0.2c0.3-0.4,0.2-0.9,0.3-1.3c0.1-1.7,0-3.4,0.1-5.1
	C-207.8-81.4-207.9-85.6-207.8-89.9z"/>
<path class="st9" d="M-219.6-135.2c0,0.2-0.2,0.2-0.4,0.3c-1,0.1-1.9-0.1-2.8-0.2c-0.5,0-1,0-1.6,0c-0.4,0-0.8,0-1.2,0
	c0.4-0.1,0.9,0,1.3-0.1c1.4,0,2.8,0,4.2,0C-219.9-135.2-219.8-135.2-219.6-135.2z"/>
<path class="st9" d="M-227.5-135.2c-0.1,0.3-0.3,0.3-0.5,0.2c-0.3-0.2-0.6-0.1-0.9-0.1C-228.4-135.2-227.9-135.2-227.5-135.2z"/>
<path class="st9" d="M-229.5-135.1c0,0.2-0.2,0.2-0.3,0.1c-0.1-0.1-0.2-0.1-0.4-0.1C-230-135.1-229.7-135.1-229.5-135.1z"/>
<path class="st9" d="M-230.4-135c-0.1,0.4-0.3,0.1-0.4,0.1C-230.7-135.1-230.5-135-230.4-135z"/>
<path class="st9" d="M-234.9-91.3c0,0.1,0.4,0.3,0,0.4C-235-91-235-91.2-234.9-91.3z"/>
<path class="st9" d="M-234.5-97.1c0,0.1,0.3,0.3-0.1,0.4C-234.5-96.8-234.5-96.9-234.5-97.1z"/>
<path class="st9" d="M-231.6-128.8c0.1,0.1,0.3,0.3,0,0.4C-231.7-128.6-231.7-128.7-231.6-128.8z"/>
<path class="st9" d="M-232.9-114.7c0.1,0.1,0.3,0.3,0,0.4C-233-114.4-233-114.6-232.9-114.7z"/>
<path class="st9" d="M-233-113.9c0.1,0.1,0.3,0.3,0,0.4C-233-113.7-233-113.8-233-113.9z"/>
<path class="st9" d="M-234.1-100.9c0.1,0.1,0.3,0.3,0,0.4C-234.2-100.6-234.2-100.8-234.1-100.9z"/>
<path class="st9" d="M-234.5-96.2c0,0.1,0.3,0.3-0.1,0.4C-234.6-96-234.6-96.1-234.5-96.2z"/>
<path class="st9" d="M-231.4-130.8c0.1,0.1,0.2,0.3,0,0.4C-231.5-130.6-231.5-130.7-231.4-130.8z"/>
<path class="st9" d="M-233.4-109.4c0,0.1,0.2,0.3-0.1,0.4C-233.4-109.2-233.4-109.3-233.4-109.4z"/>
<path class="st9" d="M-233.6-107.1c0.1,0.1,0.2,0.3,0,0.4C-233.6-106.8-233.7-106.9-233.6-107.1z"/>
<path class="st9" d="M-231.7-128.1c0.1,0.1,0.2,0.3,0,0.4C-231.7-127.8-231.8-128-231.7-128.1z"/>
<path class="st9" d="M-233.7-105.6c0,0.1,0.2,0.3-0.1,0.4C-233.8-105.3-233.8-105.4-233.7-105.6z"/>
<path class="st9" d="M-233.8-104.7c0.1,0.1,0.2,0.3,0,0.4C-233.8-104.5-233.9-104.6-233.8-104.7z"/>
<path class="st9" d="M-233-113.2c0.1,0.1,0.2,0.3,0,0.4C-233.1-112.9-233.1-113.1-233-113.2z"/>
<path class="st9" d="M-233.9-103.2c0,0.1,0.2,0.3-0.1,0.4C-234-103-234-103.1-233.9-103.2z"/>
<path class="st9" d="M-231.3-131.5c0.1,0.1,0.2,0.3,0,0.4C-231.4-131.3-231.4-131.4-231.3-131.5z"/>
<path class="st9" d="M-231-134.9c0.1,0.1,0.2,0.3-0.1,0.3C-231.1-134.7-231.1-134.8-231-134.9z"/>
<path class="st9" d="M-231.9-125.9c0.1,0.1,0.2,0.3,0,0.4C-231.9-125.7-232-125.8-231.9-125.9z"/>
<path class="st9" d="M-234.3-99.4c0,0.1,0.2,0.3-0.1,0.4C-234.3-99.1-234.3-99.2-234.3-99.4z"/>
<path class="st9" d="M-234.3-98.6c0.1,0.1,0.2,0.3,0,0.4C-234.4-98.3-234.4-98.5-234.3-98.6z"/>
<path class="st9" d="M-232.6-118.5c0,0.1,0.2,0.3-0.1,0.4C-232.6-118.2-232.6-118.3-232.6-118.5z"/>
<path class="st9" d="M-232.7-117c0,0.1,0.2,0.3-0.1,0.4C-232.8-116.7-232.8-116.8-232.7-117z"/>
<path class="st9" d="M-232.6-117.7c0,0.1,0.2,0.3-0.1,0.4C-232.7-117.4-232.7-117.6-232.6-117.7z"/>
<path class="st9" d="M-232.8-115.4c0.1,0.1,0.2,0.3,0,0.4C-232.9-115.2-232.9-115.3-232.8-115.4z"/>
<path class="st10" d="M-184.3-64.2c-2.7,0.8-5.3,1.5-8,2.3c-2.5,0.7-5.1,1.4-7.7,2.1c-2.5,0.7-5.1,1.4-7.6,2c-0.3,0.1-0.4,0-0.4-0.3
	c-0.1-0.5-0.1-1-0.1-1.5c-0.1-3.4,0-6.9-0.1-10.3c0-0.3,0.1-0.4,0.4-0.5c3.1-0.8,6.1-1.6,9.2-2.5c1.3-0.4,2.6-0.7,3.9-1.2
	c0.3-0.1,0.4-0.3,0.5-0.6c0.2-1,0.3-2,0.4-3c0.2-1.3,0.3-2.6,0.4-3.9c0.1-0.9,0.1-1.9,0.2-2.8c0.1-1.1,0.2-2.2,0.3-3.3
	c0.1-0.9,0.1-1.7,0.3-2.5c0-0.1,0-0.2-0.1-0.2c-0.1,0-0.2,0-0.3,0c-4.9,0-9.8,0-14.7,0c-0.3,0-0.4-0.1-0.4-0.4c0-3.9,0-7.9,0-11.8
	c0.1-0.1,0.2-0.1,0.3,0c0.1,0,0.3,0,0.4,0c7.5,0,15.1,0,22.6,0c1.6,0,3.3,0,4.9,0.2c0.2,0,0.4,0,0.6,0.1c0.1,0.1,0.1,0.2,0,0.4
	c-0.2,2-0.4,4-0.6,6c-0.2,1.6-0.3,3.3-0.4,4.9c-0.1,1.6-0.3,3.3-0.4,4.9c-0.1,1.4-0.2,2.8-0.4,4.2c-0.2,1.7-0.3,3.3-0.4,5
	c-0.1,1.5-0.3,3.1-0.4,4.6c-0.2,2.3-0.4,4.7-0.7,7c0,0.4-0.2,0.6-0.6,0.7C-183.7-64.4-184-64.2-184.3-64.2z"/>
<path class="st7" d="M-207.8-102.5c-0.1,0-0.2,0-0.3,0c-0.6,0-1.3,0-1.9,0c-3.6,0-7.3,0-10.9,0c-0.3,0-0.4,0-0.3-0.4
	c0.1-0.1,0-0.3,0-0.4c0-0.1-0.1-0.3,0-0.4c0-0.1,0-0.2,0-0.3c0.1-0.1-0.1-0.3,0.1-0.4c0-0.4,0.1-0.7,0.1-1.1
	c0.1-0.1-0.1-0.3,0.1-0.4c0-0.1,0-0.2,0-0.3c0-0.1-0.1-0.3,0-0.4c0-0.1,0-0.2,0-0.3c0.1-0.1-0.1-0.3,0.1-0.4c0-0.1,0-0.2,0-0.3
	c0.1-0.1-0.1-0.3,0.1-0.4c0-0.1,0-0.2,0-0.3c0.1-0.1-0.1-0.3,0.1-0.4c0-0.1,0-0.2,0-0.3c0-0.1-0.1-0.3,0-0.4c0-0.1,0-0.2,0-0.3
	c0-0.1-0.1-0.3,0-0.4c0-0.1,0-0.2,0-0.3c0.1-0.2-0.1-0.3,0.1-0.5c0-0.1,0-0.2,0-0.3c0.1-0.2-0.1-0.3,0.1-0.5c0-0.1,0-0.2,0-0.3
	c0.1-0.2-0.1-0.3,0.1-0.5c0-0.1,0-0.1,0-0.2c0.1-0.2-0.1-0.3,0.1-0.5c0-0.1,0-0.2,0-0.3c0.1-0.2-0.1-0.3,0.1-0.5c0-0.1,0-0.1,0-0.2
	c0.1-0.2-0.1-0.3,0.1-0.5c0-0.1,0-0.2,0-0.3c0.1-0.2-0.1-0.3,0.1-0.5c0-0.1,0-0.1,0-0.2c0.1-0.2-0.1-0.3,0.1-0.5c0-0.1,0-0.2,0-0.2
	c0.1-0.1-0.1-0.3,0.1-0.4c0-0.1,0-0.2,0-0.3c0.1-0.1-0.1-0.3,0.1-0.4c0-0.1,0-0.2,0-0.3c0.1-0.1-0.1-0.3,0.1-0.4c0-0.1,0-0.2,0-0.3
	c0.1-0.1-0.1-0.3,0.1-0.4c0.1-0.8,0.1-1.6,0.2-2.4c0-0.1,0.1-0.2,0.1-0.4c0.1-0.2,0.2-0.2,0.4-0.1c0.2,0,0.4,0.1,0.6,0
	c0.3,0,0.6,0,0.9,0c0.1-0.1,0.3-0.1,0.4,0c0.1,0,0.2,0,0.4,0c0.4,0,0.7,0,1.1,0c0.1-0.1,0.3-0.1,0.5-0.1c0.2,0,0.3,0.1,0.5,0
	c0.4,0,0.8,0,1.1,0c0.1-0.1,0.3-0.1,0.4-0.1c0.2,0.1,0.5,0.1,0.7,0c0.5,0,0.9,0,1.4,0c0.1-0.1,0.2-0.1,0.4-0.1
	c0.3,0.1,0.6,0.1,0.9,0c0.4,0,0.7,0,1.1,0c0.3-0.2,0.6,0,1,0c0,0.2,0.1,0.3,0.1,0.5C-207.8-115.1-207.8-108.8-207.8-102.5z"/>
<path class="st5" d="M-184.3-64.2c0.4-0.1,0.8-0.2,1.2-0.4c0.2,0,0.2-0.2,0.3-0.3c0.1-1.1,0.3-2.2,0.3-3.3c0.1-1,0.2-2,0.3-3
	c0.1-0.8,0.1-1.7,0.2-2.5c0.1-0.8,0.2-1.7,0.3-2.5c0.1-0.6,0.1-1.1,0.1-1.7c0.1-1,0.2-1.9,0.3-2.9c0.1-0.6,0.1-1.2,0.1-1.9
	c0.1-0.9,0.2-1.8,0.3-2.7c0.1-0.6,0.1-1.2,0.1-1.9c0.1-0.9,0.2-1.8,0.3-2.8c0.1-0.6,0.1-1.2,0.1-1.7c0.1-0.9,0.2-1.9,0.3-2.8
	c0.1-0.6,0.1-1.2,0.1-1.8c0.1-0.9,0.2-1.7,0.3-2.6c0-0.5,0.1-1,0.1-1.5c0-0.6,0.1-1.2,0.2-1.8c0.2,0,0.2,0.2,0.2,0.4
	c-0.1,0.7-0.2,1.4-0.2,2.2c-0.1,1.3-0.3,2.6-0.4,3.9c-0.2,1.6-0.3,3.3-0.5,4.9c-0.1,1.4-0.2,2.7-0.4,4.1c-0.1,1.7-0.3,3.4-0.5,5
	c-0.1,1.4-0.2,2.7-0.4,4.1c-0.1,1.6-0.3,3.2-0.4,4.8c-0.1,1.3-0.2,2.6-0.4,3.8c-0.1,1.3-0.3,2.7-0.4,4c0,0.3-0.1,0.4-0.4,0.5
	c-0.4,0.1-0.9,0.3-1.3,0.4C-184.3-64.1-184.3-64.2-184.3-64.2z"/>
<path class="st5" d="M-188.7-108.5c-0.6,0-1.1,0-1.7,0c0.3-0.1,0.5,0,0.7,0c-0.3,0-0.6,0-1,0c-0.3,0-0.6,0-0.9-0.1
	c-0.2,0-0.3-0.1-0.4-0.3c0.1-0.1,0.3-0.1,0.5,0c0.2,0.1,0.3,0.1,0.5,0.1c3.7,0,7.4,0,11,0c0.5,0,0.5,0,0.4-0.5
	c-0.3-2.1-0.4-4.2-0.6-6.3c-0.2-2.1-0.4-4.2-0.6-6.3c-0.2-1.7-0.3-3.4-0.4-5c-0.1-1.4-0.2-2.8-0.4-4.3c-0.1-0.8-0.1-1.7-0.2-2.5
	c0-0.1,0-0.2,0.1-0.3c0.1-0.1,0.2-0.1,0.2,0c0.1,0.6,0.1,1.3,0.2,1.9c0.2,1.7,0.3,3.4,0.5,5.2c0.1,1.4,0.2,2.8,0.4,4.2
	c0.1,1.6,0.3,3.3,0.5,4.9c0.1,1.4,0.2,2.7,0.4,4.1c0.1,1.6,0.3,3.1,0.5,4.7c0,0.2,0,0.3,0,0.5c-0.1,0.1-0.3,0.1-0.4,0.1
	c-2.9,0-5.8,0-8.7,0C-188.4-108.5-188.6-108.6-188.7-108.5z"/>
<path class="st9" d="M-191.6-109c-0.1,0.1-0.2,0.1-0.3,0.1c-0.1-1.5-0.2-2.9-0.4-4.4c-0.2-1.6-0.3-3.3-0.5-4.9
	c-0.1-0.8-0.2-1.6-0.3-2.4c0-0.3-0.2-0.5-0.5-0.5c-1-0.1-2-0.2-3-0.3c-3.6-0.2-7.2-0.3-10.9-0.4c-0.1,0-0.2,0-0.2,0c0.5,0,1,0,1.5,0
	c0.2,0,0.3,0,0.4-0.2c0.3-0.2,0.6-0.1,0.9-0.1c0.8,0.1,1.6,0.1,2.3,0.1c0.8,0,1.6,0.1,2.5,0.1c1.1,0,2.1,0.1,3.2,0.2
	c1.2,0.1,2.3,0.2,3.5,0.3c0.6,0.1,0.7,0.2,0.8,0.8c0.1,1.5,0.2,3.1,0.4,4.6c0.1,1.4,0.2,2.7,0.4,4.1c0.1,0.8,0.2,1.7,0.3,2.5
	C-191.5-109.3-191.5-109.1-191.6-109z"/>
<path class="st9" d="M-181.5-134.2c-0.1,0-0.1,0-0.2,0c-0.1-0.4-0.5-0.5-0.8-0.5c-0.5,0-0.9-0.1-1.4-0.1c-2.7-0.1-5.4-0.1-8-0.1
	c-0.2,0-0.4,0-0.6-0.1c0-0.1,0-0.1,0-0.2c2.7,0,5.4,0,8.1,0c0.9,0,1.7,0,2.6,0c0.3,0,0.4,0.1,0.4,0.3
	C-181.5-134.6-181.5-134.4-181.5-134.2z"/>
<path class="st9" d="M-202.9-135.2c-2.2,0-4.5,0-6.7,0c-0.8,0-1.5,0-2.3,0.2c-0.8,0.1-1.6,0-2.4,0c-0.1,0-0.3-0.1-0.3-0.3
	c2.5,0,5,0,7.5,0c1.3,0,2.5,0,3.8,0C-203.2-135.2-203-135.3-202.9-135.2z"/>
<path class="st9" d="M-188.7-108.5c0-0.2,0.2-0.1,0.3-0.1c2.9,0,5.9,0,8.8,0c0.1,0,0.3-0.1,0.4-0.1c0.1,0.3-0.1,0.2-0.3,0.2
	c-1.1,0-2.3,0-3.4,0C-184.8-108.5-186.7-108.5-188.7-108.5z"/>
<path class="st9" d="M-207.9-121.9c-0.3,0-0.6,0-1,0c0.1-0.2,0.3-0.3,0.4-0.1C-208.2-121.9-208-122.1-207.9-121.9
	C-207.8-121.9-207.9-121.9-207.9-121.9L-207.9-121.9z"/>
<path class="st9" d="M-190.7-108.5c0.4-0.1,0.8,0,1.2,0c-0.3,0-0.6,0-0.8,0C-190.5-108.5-190.6-108.5-190.7-108.5z"/>
<path class="st10" d="M-192.5-135c1.9,0,3.7,0,5.6,0c1.1,0,2.2,0,3.3,0.1c0.5,0,1.1,0,1.6,0.2c0.3,0.1,0.5,0.2,0.4,0.6
	c0.1,0.7,0.1,1.5,0.2,2.2c0.1,0.6,0.1,1.2,0.1,1.9c0.1,1,0.2,1.9,0.3,2.9c0.1,0.6,0.1,1.2,0.1,1.9c0.1,0.9,0.2,1.9,0.3,2.8
	c0.1,0.5,0.1,1.1,0.1,1.6c0.1,0.9,0.2,1.9,0.3,2.8c0.1,0.6,0.1,1.2,0.1,1.8c0.1,0.9,0.2,1.8,0.3,2.7c0.1,0.5,0.1,1.1,0.1,1.6
	c0.1,0.9,0.2,1.9,0.3,2.8c0.1,0.4,0,0.5-0.4,0.5c-3.8,0-7.6,0-11.4,0c-0.2,0-0.4,0-0.4-0.2c-0.1-0.6-0.2-1.2-0.2-1.9
	c-0.1-0.6-0.1-1.2-0.2-1.7c-0.1-0.9-0.2-1.9-0.3-2.8c-0.1-0.6-0.1-1.3-0.1-1.9c-0.1-1-0.2-2.1-0.3-3.1c0-0.2,0-0.3,0-0.5
	c0-0.3-0.1-0.5-0.4-0.5c-0.9,0-1.7-0.2-2.6-0.2c-1.3-0.1-2.5-0.2-3.8-0.2c-1,0-1.9-0.1-2.9-0.1c-1.1,0-2.3-0.1-3.4-0.1
	c-0.6,0-1.2-0.1-1.9-0.1c-0.3,0-0.2-0.2-0.2-0.3c0-1.4,0-2.9,0-4.3c0-2.6,0-5.2,0-7.7c0-0.3,0.1-0.4,0.4-0.4
	C-202.5-135-197.5-135-192.5-135z"/>
<path class="st9" d="M-209.9-121.9c-0.4,0.1-0.9,0.1-1.3,0.1c0-0.2,0.2-0.3,0.3-0.2C-210.6-121.8-210.2-122-209.9-121.9z"/>
<path class="st9" d="M-214.9-121.8c-0.3,0.1-0.6,0.1-1,0.1c0.1-0.2,0.3-0.3,0.5-0.2C-215.2-121.8-215-121.8-214.9-121.8z"/>
<path class="st9" d="M-212.6-121.9c-0.4,0.1-0.7,0.1-1.1,0.1c0.1-0.2,0.2-0.3,0.4-0.1C-213.1-121.8-212.9-121.9-212.6-121.9z"/>
<path class="st9" d="M-218.5-121.6c-0.2,0.1-0.4,0-0.6,0.1c-0.1,0-0.2,0-0.3,0.1c0-0.2,0.1-0.4,0.3-0.3
	C-219-121.6-218.8-121.7-218.5-121.6z"/>
<path class="st9" d="M-216.9-121.7c-0.3,0.1-0.5,0.1-0.8,0.1c0-0.2,0.2-0.2,0.4-0.2C-217.2-121.7-217-121.7-216.9-121.7z"/>
<path class="st9" d="M-220.5-111c0,0.2,0,0.3-0.1,0.5C-220.6-110.7-221-110.9-220.5-111z"/>
<path class="st9" d="M-220.3-113.2c0,0.2,0,0.3-0.1,0.5C-220.4-112.9-220.8-113.1-220.3-113.2z"/>
<path class="st9" d="M-220.2-114.7c0,0.2,0,0.3-0.1,0.5c0-0.1,0-0.1-0.1-0.2C-220.5-114.5-220.4-114.6-220.2-114.7z"/>
<path class="st9" d="M-220.1-116.1c0,0.2,0,0.3-0.1,0.5c0-0.1,0-0.1-0.1-0.2C-220.3-116-220.2-116-220.1-116.1z"/>
<path class="st9" d="M-220.1-115.4c0,0.2,0,0.3-0.1,0.5c0-0.1,0-0.2-0.1-0.2C-220.4-115.3-220.3-115.4-220.1-115.4z"/>
<path class="st9" d="M-220.6-110.3c0,0.1,0,0.3,0,0.4C-220.7-110-221-110.2-220.6-110.3z"/>
<path class="st9" d="M-220.7-109.6c0,0.1,0,0.3,0,0.4C-220.8-109.3-221-109.5-220.7-109.6z"/>
<path class="st9" d="M-219.9-117.4c0,0.1,0,0.3-0.1,0.4C-220-117.2-220.3-117.3-219.9-117.4z"/>
<path class="st9" d="M-220-116.8c0,0.1,0,0.3-0.1,0.4C-220-116.5-220.4-116.7-220-116.8z"/>
<path class="st9" d="M-220.4-112.5c0,0.2,0,0.3-0.1,0.5C-220.5-112.2-220.7-112.4-220.4-112.5z"/>
<path class="st9" d="M-220.9-106.6c0,0.1,0,0.3,0,0.4C-221.1-106.4-221.3-106.5-220.9-106.6z"/>
<path class="st9" d="M-220.9-107.3c0,0.1,0,0.3-0.1,0.4C-220.9-107-221.3-107.2-220.9-107.3z"/>
<path class="st9" d="M-220.7-108.8c0,0.1,0,0.3-0.1,0.4C-220.8-108.5-221.1-108.7-220.7-108.8z"/>
<path class="st9" d="M-220.8-108.1c0,0.1,0,0.3-0.1,0.4C-220.9-107.8-221.2-108-220.8-108.1z"/>
<path class="st9" d="M-221.2-103.6c0,0.1,0,0.2,0,0.4C-221.4-103.4-221.5-103.6-221.2-103.6z"/>
<path class="st9" d="M-220.5-111.8c0,0.2,0,0.3-0.1,0.5C-220.5-111.5-220.8-111.7-220.5-111.8z"/>
<path class="st9" d="M-220.3-114c0,0.2,0,0.3-0.1,0.5C-220.3-113.6-220.6-113.8-220.3-114z"/>
<path class="st9" d="M-219.9-118.1c0,0.1,0,0.3-0.1,0.4C-219.9-117.8-220.1-118-219.9-118.1z"/>
<path class="st9" d="M-221-105.9c0,0.1,0,0.3-0.1,0.4C-221.1-105.6-221.3-105.8-221-105.9z"/>
<path class="st9" d="M-221.2-104.4c0,0.1,0,0.3-0.1,0.4C-221.2-104.1-221.4-104.3-221.2-104.4z"/>
<path class="st9" d="M-219.8-118.8c0,0.1,0,0.3-0.1,0.4C-219.9-118.5-220.1-118.7-219.8-118.8z"/>
<path class="st1" d="M-169.4,113.4c0,4.5-0.6,8.9-1.5,13.2c-0.1,0.7-0.1,1,0.7,1.2c5.9,1.9,11.7,4.3,16.7,8.1
	c2.2,1.7,4.1,3.5,5.5,5.9c2.2,3.8,2,7.5-0.3,11.1c-2.1,3.4-5.3,5.8-8.6,7.8c-4.1,2.5-8.6,4.3-13.2,5.7c-0.7,0.2-0.8,0.5-0.6,1.1
	c1.2,5.4,1.8,10.8,1.5,16.4c-0.2,3.2-0.8,6.4-2.3,9.3c-2.3,4.4-6.4,6.4-11.3,5.7c-4.6-0.7-8.6-2.7-12.5-5.1c-3.2-2-6.1-4.4-8.9-6.9
	c-0.5-0.5-0.8-0.4-1.3,0c-4.1,3.8-8.5,7.1-13.5,9.6c-2.9,1.4-5.8,2.5-9,2.6c-5.1,0.2-8.8-2.2-10.8-7.3c-1.2-2.9-1.6-5.9-1.7-9
	c-0.2-5.1,0.4-10.1,1.6-15.1c0.2-0.8,0-1-0.7-1.2c-5.4-1.7-10.5-3.8-15.2-7c-2.7-1.8-5.1-4-6.8-6.8c-2.4-4.1-2.1-8.1,0.6-11.9
	c2.4-3.4,5.6-5.7,9.1-7.7c3.9-2.2,8-3.9,12.2-5.2c0.6-0.2,0.9-0.3,0.7-1.1c-1.1-5.1-1.8-10.2-1.6-15.4c0.2-3.9,0.8-7.8,2.9-11.2
	c2.4-3.9,6.1-5.3,10.4-4.9c4.6,0.5,8.6,2.5,12.5,4.9c3.4,2.1,6.5,4.6,9.4,7.3c0.5,0.4,0.7,0.3,1.1,0c4-3.7,8.2-7,13.1-9.4
	c3.2-1.6,6.6-2.9,10.3-2.8c4.3,0.1,7.3,2.1,9.3,5.7c1.3,2.5,1.9,5.2,2.3,8C-169.4,110.4-169.4,111.9-169.4,113.4z"/>
<path class="st10" d="M-205.1,166.2c-3.4,0.1-6.7-0.1-10.1-0.3c-0.4,0-0.7-0.2-0.9-0.5c-3.9-5.6-7.3-11.5-10.2-17.6
	c-0.2-0.3-0.2-0.6,0-0.9c2.9-6.2,6.3-12.1,10.1-17.7c0.2-0.3,0.5-0.5,0.9-0.5c2.7-0.1,5.3-0.3,8-0.4c3.5-0.1,7,0.1,10.5,0.2
	c0.7,0,1.4,0.1,2,0.1c0.4,0,0.6,0.3,0.8,0.6c3,4.4,5.8,9,8.2,13.8c0.6,1.2,1.2,2.5,1.9,3.7c0.2,0.4,0.2,0.7,0,1.1
	c-2.9,6.1-6.3,12-10.1,17.6c-0.3,0.5-0.8,0.6-1.3,0.6C-198.5,166.1-201.8,166.3-205.1,166.2z"/>
<path class="st10" d="M-151.9,147.3c-0.1,1.8-1.1,3.2-2.3,4.5c-2.1,2.3-4.6,3.9-7.3,5.4c-3.3,1.8-6.8,3.1-10.4,4.3
	c-0.5,0.2-0.6,0-0.8-0.4c-1.3-4.5-3-8.8-4.8-13.1c-0.2-0.6-0.3-1,0-1.6c1.9-4.2,3.5-8.5,4.7-12.9c0.2-0.6,0.4-0.7,1-0.5
	c5.1,1.7,10,3.7,14.4,6.9c1.6,1.2,3.1,2.5,4.2,4.1C-152.4,144.9-151.9,146-151.9,147.3z"/>
<path class="st10" d="M-174.7,113.1c-0.1,4.3-0.6,8.4-1.5,12.4c-0.1,0.5-0.2,0.7-0.8,0.5c-4.6-1.1-9.3-1.9-14-2.4
	c-0.4,0-0.6-0.2-0.8-0.5c-2.8-3.8-5.8-7.5-9.1-11c-0.4-0.4-0.4-0.7,0.1-1.1c2.8-2.5,5.6-4.8,8.8-6.8c2.8-1.7,5.6-3.3,8.9-3.7
	c3.4-0.5,5.3,0.1,6.8,3.5c0.4,1,0.7,2,0.9,3C-174.8,109.2-174.8,111.3-174.7,113.1z"/>
<path class="st10" d="M-228.7,194c-2.3,0-3.9-1-4.9-3.1c-0.9-1.7-1.3-3.6-1.5-5.5c-0.6-5.4,0-10.8,1.1-16.1c0.2-0.9,0.2-0.9,1.2-0.7
	c4.4,1,8.9,1.8,13.5,2.3c0.4,0,0.8,0.2,1,0.6c2.8,3.9,5.9,7.6,9.2,11.1c0.2,0.2,0.4,0.3,0.1,0.6c-4.9,4.4-10,8.4-16.4,10.4
	C-226.5,193.8-227.6,193.9-228.7,194z"/>
<path class="st10" d="M-238,132.8c0.4,0,0.4,0.4,0.5,0.6c0.6,1.9,1.2,3.8,1.9,5.7c0.9,2.6,1.9,5.1,3.1,7.6c0.2,0.3,0.2,0.6,0,1
	c-1.9,4.3-3.5,8.8-4.9,13.3c-0.1,0.3-0.1,0.7-0.6,0.5c-5.5-1.8-10.7-4-15.3-7.5c-1.2-0.9-2.3-2-3.2-3.2c-2-2.6-2-5,0.1-7.6
	c2.1-2.6,4.8-4.4,7.7-6c3.4-1.9,6.9-3.3,10.6-4.4C-238.2,132.9-238.1,132.9-238,132.8z"/>
<path class="st10" d="M-174.6,180.9c0,3.3-0.2,6.4-1.5,9.3c-0.8,1.9-2,3.4-4.2,3.6c-1.5,0.1-3-0.1-4.5-0.5c-3.4-1-6.5-2.8-9.4-4.8
	c-2.3-1.6-4.5-3.4-6.6-5.3c-0.4-0.3-0.4-0.5,0-0.9c3.1-3.2,5.9-6.6,8.5-10.2c0.7-1,1.5-1.3,2.6-1.4c4.3-0.4,8.6-1.2,12.8-2.2
	c0.5-0.1,0.7,0,0.8,0.5C-175.2,172.9-174.6,176.9-174.6,180.9z"/>
<path class="st10" d="M-235.5,113.8c0-3.2,0.2-5.9,1.1-8.7c0.1-0.2,0.1-0.4,0.2-0.6c1.4-3.5,3.5-4.5,7.5-3.7
	c4.2,0.9,7.8,3.1,11.3,5.5c2.1,1.5,4.1,3.2,6,4.9c0.4,0.4,0.4,0.6,0,1c-3.2,3.4-6.2,7-9,10.8c-0.3,0.4-0.5,0.5-1,0.6
	c-4.7,0.6-9.3,1.3-13.9,2.4c-0.4,0.1-0.7,0-0.8-0.5c-0.6-2.8-1.1-5.6-1.3-8.5C-235.4,115.9-235.5,114.7-235.5,113.8z"/>
<path class="st10" d="M-198.5,123c-4.4-0.3-8.7-0.1-13.1,0c0.8-1,1.4-1.8,2.1-2.6c1.3-1.5,2.7-3,4-4.6c0.2-0.2,0.4-0.5,0.7-0.1
	C-202.6,118-200.6,120.3-198.5,123z"/>
<path class="st10" d="M-211.6,171.4c4.5,0.2,8.7,0.2,13.1,0c-0.9,1.2-1.8,2.3-2.7,3.3c-1.1,1.3-2.3,2.6-3.5,3.9
	c-0.2,0.3-0.4,0.4-0.7,0.1C-207.5,176.4-209.6,174-211.6,171.4z"/>
<path class="st10" d="M-180.9,153.6c1,2.4,1.8,4.8,2.6,7.2c0.2,0.6,0.3,1.2,0.6,1.8c0.1,0.4,0,0.5-0.3,0.6c-3,0.7-6.1,1.3-9.4,1.8
	C-185,161.3-182.8,157.6-180.9,153.6z"/>
<path class="st10" d="M-229.3,140.8c-1.2-3.1-2.3-6-3.2-9c-0.1-0.3-0.1-0.5,0.3-0.5c2.9-0.7,5.7-1.2,8.6-1.7c0.2,0,0.4-0.1,0.5,0.1
	c0,0.1,0,0.2-0.1,0.4C-225.3,133.4-227.3,137-229.3,140.8z"/>
<path class="st10" d="M-229.3,153.7c2,3.9,4.2,7.6,6.5,11.3c-1.5-0.2-2.8-0.4-4-0.7c-1.7-0.3-3.4-0.7-5.1-1.1
	c-0.4-0.1-0.6-0.2-0.5-0.6C-231.5,159.7-230.5,156.7-229.3,153.7z"/>
<path class="st10" d="M-180.9,140.6c-1.9-3.8-4.1-7.5-6.5-11.2c1.3,0.2,2.4,0.4,3.5,0.6c1.9,0.3,3.9,0.7,5.8,1.2
	c0.3,0.1,0.5,0.1,0.4,0.5c-0.9,2.9-1.9,5.8-3,8.7C-180.8,140.5-180.8,140.5-180.9,140.6z"/>
<path class="st11" d="M-215.9,147.2c-0.2-5.6,4.5-10.8,10.8-10.9c6.1-0.1,10.9,4.8,10.9,10.9c0,6.1-4.8,10.8-10.9,10.8
	C-211.1,158.1-216.1,153-215.9,147.2z"/>
<path class="st11" d="M-367.1,5.5c-0.4,0.6-1.2,0.4-1.7,0.7c-0.5,0.3-1,0.2-1.2-0.4c-0.1-0.6-0.6-1.2,0.3-1.6
	c0.2-0.1,0.4-0.2,0.6-0.3c2.3-1,4.8-0.9,7.1-0.8c2.8,0.1,4.5,2.2,4.6,5.3c0.1,3.5,0,7.1,0,10.6c0,0.7,0.5,1.8-1,1.8
	c-1.1,0-2.4,0.3-1.8-1.8c-2.4,1.5-4.5,2.7-7.2,2.1c-2.1-0.5-3.4-1.6-3.7-3.8c-0.4-2.1,0.2-3.9,2-5.2c1.7-1.3,3.7-1.5,5.8-1.7
	c0.8-0.1,2.1,0.4,2.4-0.7c0.3-1.2,0-2.5-1-3.5c-0.3-0.2-0.6-0.4-0.8-0.6C-364.3,5.1-365.7,5.1-367.1,5.5z"/>
<path class="st11" d="M-393.1,20.3c-0.3-0.8-0.6-1.5-1.6-0.6c-1,0.9-2.4,1.3-3.7,1.4c-2.7,0.3-5-1.1-5.6-3.2c-0.9-2.9,0.2-5.3,3-6.7
	c1.6-0.8,3.3-0.8,4.9-1c2.2-0.2,2.6-1,1.8-3.1c-0.3-0.7-0.8-1.1-1.3-1.6c-1.4-0.7-2.8-0.4-4.2-0.1c-0.7,0.3-1.4,0.5-2.1,0.8
	c-0.8,0.3-0.9-0.3-1.1-0.8c-0.2-0.5-0.5-1.1,0.4-1.3c1.5-0.5,3-1.3,4.6-0.9c0.4,0.1,0.8,0.1,1.2,0c3.2-0.8,5.5,0.7,6.3,4
	c-0.3,3.7-0.1,7.4-0.1,11.2C-390.8,20.7-390.7,20.7-393.1,20.3z"/>
<path class="st11" d="M-382.9,19.9c-2-5.2-3.4-10.6-5.3-16.1c1.1,0,2,0.1,2.8,0c1.1-0.2,1.3,0.3,1.5,1.1c1.2,4,2.4,7.9,3.7,12.1
	c1.4-4,2.7-7.7,3.2-11.7c0.2-2.3,1.9-1.4,3-1.5c1.7,0,0.7,1.2,0.5,1.8c-0.9,4.5-2.1,8.9-3.9,13.1c-0.3,0.7-0.4,1.6-1.3,2
	C-380,20.1-381.7,21.2-382.9,19.9z"/>
<path class="st11" d="M-407.2,20.3c-0.4,2.8-1.8,5-4.3,6.4c-1.2,0.7-1.7-0.1-2.4-0.9c-0.9-1.1,0.3-1.1,0.7-1.4c2-1.7,2.5-4,2.5-6.4
	c0-6.3,0-12.5,0-18.8c0-0.7-0.3-1.4,0.3-2c3.1,0.2,3.1,0.2,3.1,3.4C-407.2,7.1-407.5,13.7-407.2,20.3z"/>
<path class="st11" d="M-439-20.8c-0.5,2.3-1.8,4.1-3.4,5.7c-2.3,2.2-4.6,4.4-6.8,6.7c-4.2,4.4-4.4,6.6-1.5,12
	c0.4,0.7,1.1,1.3,0.6,2.4c-1.7-1.8-3.3-3.7-4.6-5.7c-2.2-3.4-2.2-5.2,0.5-8.3c2.6-3,5.8-5.4,8.8-7.9c1.7-1.4,3.3-2.9,4.2-4.9
	c0.5-1.1,0.9-2.2,1.3-3.3C-438.5-23.3-439.5-21.9-439-20.8z"/>
<path class="st11" d="M-425.1,30.4c0.5,1.9-0.6,2.2-1.4,2.7c-3.5,1.9-7.3,2.5-11.2,2.9c-9.3,0.9-18.6,0.9-27.9,0
	c-2-0.2-3.9-0.5-5.8-1.2c-1.7-0.7-1.9-1.7-0.4-2.7c1.9-1.3,4.1-1.8,6.5-2c-0.2,0.3-0.3,0.4-0.4,0.5c-1,0.5-2.8,0.6-2.7,1.9
	c0.2,1.2,1.9,1.2,3.1,1.4c8.1,1.5,16.2,1.1,24.3,0.7c4.1-0.2,8.3-0.5,12.4-1.5C-427.2,32.6-425.8,32.4-425.1,30.4z"/>
<path class="st11" d="M-433.6-14c-2.4,2-5,3.6-7.2,5.8c-2.9,2.9-3,4.4-0.8,7.8c0.2,0.2,0.3,0.5,0.5,0.7c2.9,4.6,2.1,7.6-3,10.3
	c2.7-2.9,1.2-5.3-0.6-7.7c-3.5-4.8-2.9-8.9,1.9-12.6C-440.1-11.8-436.9-13.1-433.6-14z"/>
<path class="st11" d="M-436.3,27.7c-7,2.5-13.5,2.9-20.2,1.4c-0.8-0.2-1.6-0.6-2.3-1c-0.9-0.6-1.3-1.4-0.3-2.2
	c0.6-0.6,1.4-1.6,2.2,0c0.5,0.8,1.6,0.9,2.5,0.9c4.5,0.1,9,0.3,13.5-0.6C-439.2,25.7-438.3,27.3-436.3,27.7z"/>
<path class="st11" d="M-458.8,17.2c-0.3,1.7,0.6,2.1,1.8,2.3c3.7,0.6,7.5,0.3,11.2,0.2c1.9-0.1,3.8-0.3,5.7-0.7c1.7-0.4,3,0,4.3,1.4
	c-3.2,1.3-6.5,1.7-9.8,1.9c-4.2,0.3-8.5,0-12.6-0.8c-0.2,0-0.4,0-0.6-0.1c-1-0.5-2.5-0.4-2.6-1.8C-461.7,18.3-460.4,17.8-458.8,17.2
	z"/>
<path class="st11" d="M-459,10c-0.7,0.3-1.4,0.6-2,1c-0.5,0.3-1.1,0.6-1.1,1.2c0.1,0.7,0.8,0.7,1.4,0.8c4.2,0.6,8.4,0.7,12.7,0.5
	c4.9-0.3,9.7-0.8,14.9-1.6c-1.4,1.3-2.7,1.7-4.2,1.9c-6.9,1-13.9,1.6-20.9,1.2c-2.5-0.1-5.1-0.4-7.5-1c-0.5-0.1-1.2-0.2-1.3-0.9
	c0-0.5,0.5-0.8,1-1C-463.9,10.8-461.6,9.9-459,10z"/>
<path class="st11" d="M-421.6,34.2c-2.6,3-5.7,3.9-8.9,4.5c-10.1,1.9-20.1,2.2-30.2,0C-447.7,38.8-434.5,40.6-421.6,34.2z"/>
<path class="st11" d="M-430,9.3c1.9-1.2,3.7-1.1,5.5-0.2c3,1.5,3.7,4.5,1.8,7.2c-1.9,2.7-4.7,4-7.9,4.7c1.2-1,2.5-2,3.6-3.1
	c0.9-0.8,1.7-1.8,2.2-3c1.2-2.9-0.4-5.4-3.5-5.6C-428.8,9.3-429.4,9.3-430,9.3z"/>
<path class="st11" d="M-407.2,20.3c-0.6-0.7-0.3-1.5-0.3-2.2c0-5.6,0-11.3,0-16.9c0-3.3,0-3.3-2.9-4c0.1,0,0.1-0.1,0.2-0.1
	C-407-3.1-407-3.1-407,0C-407.1,6.7-407.1,13.5-407.2,20.3z"/>
<path class="st11" d="M-393.1,20.3c1.6,0.2,2.3-0.3,2.2-2c-0.1-3-0.1-6,0-9.1c0-0.7-0.2-1.4,0.3-2c0,3.9,0.1,7.8,0.1,11.7
	C-390.5,21.1-390.8,21.2-393.1,20.3z"/>
<path class="st11" d="M-439-20.8c-0.7-1,0.1-2.4-0.8-3.4c0-1.2,0.1-2.3,0.1-3.5c0,0,0.1-0.1,0.2-0.2
	C-438.6-25.6-438.5-23.2-439-20.8z"/>
<path class="st11" d="M-382.9,19.9c1.3,0.9,2.9-0.1,4.2,0.8c-1.1,0-2.3,0-3.4,0.1C-382.7,20.8-383,20.5-382.9,19.9z"/>
<path class="st11" d="M-399.9,5.5c1.4-0.6,2.8-0.9,4.2,0.1C-397,5.6-398.4,5.6-399.9,5.5z"/>
<path class="st11" d="M-367.1,5.5c1.4-0.8,2.8-0.7,4.2,0C-364.3,5.5-365.7,5.5-367.1,5.5z"/>
<path class="st12" d="M-361,14.5c0,2.5-2,4.3-4.2,4c-1.2-0.1-2.2-0.7-2.4-2c-0.2-1.3-0.1-2.6,1.3-3.3c1.4-0.8,3-0.7,4.5-0.7
	C-360.2,12.6-361.5,14-361,14.5z"/>
<path class="st13" d="M-394.1,16.9c-1,0.5-1.9,1.2-3,1.5c-1.7,0.4-3-0.1-3.5-1.8c-0.5-1.6,0-3,1.7-3.5c1.6-0.5,3.2-0.8,4.9-0.4
	C-393.7,14.1-393.3,15.5-394.1,16.9z"/>
<path class="st11" d="M-394.1,16.9c0.1-1.4,0.1-2.8,0.2-4.2C-393.3,14.1-393,15.5-394.1,16.9z"/>
<path d="M60.5,101.1c0.6-5,1.2-9.8,2-14.7c0.1-0.4,0.9-0.9,1.5-1.1c1.1-0.3,1.7-0.8,2-1.9c0.3-0.9,0.8-1.9,1.3-2.7
	c2-2.8,5.2-2.7,7.2,0.2c0.3,0.4,0.8,0.5,1.3,0.7c0.2,0.1,0.5,0.2,0.7,0.3c1,0.6,2.1,1.2,3.5,2c0.8,5.5,1.8,11.6,2.7,18
	c-3.4,0.4-6.5,2.1-10,1.3C68.7,102.5,64.7,101.9,60.5,101.1z M64.2,96.2c0,1-0.3,2.2,0.1,2.6c1.1,1.2,2.7,1.6,4.4,1.1
	c1.6-0.5,2.4-1.6,2.6-3.2c0.3-2-0.9-3.2-2.4-4.3c-0.4-0.3-0.6-1-0.9-1.5c0.6-0.2,1.2-0.6,1.8-0.7c0.5-0.1,1.1,0.2,1.7,0.3
	c0.3-1,0.6-2,1.1-3.4c-1.8,0.2-3.3,0.1-4.6,0.5c-3.1,1.2-4,5.3-1.2,7.2c0.3,0.2,0.6,0.5,0.8,0.8c0.2,0.4,0.3,1,0.1,1.3
	c-0.2,0.3-0.8,0.4-1.2,0.3C65.7,97.1,65.2,96.7,64.2,96.2z M70.4,79.8c-1.8,0.1-3.3,1.9-3.8,5c0.8-0.6,1.6-0.9,1.9-1.5
	C69.3,82.1,69.9,80.9,70.4,79.8z M71.8,80.8c-0.2-0.1-0.4-0.2-0.5-0.3c-0.6,0.9-1.2,1.7-1.8,2.6c0.1,0.1,0.2,0.2,0.3,0.3
	c0.7-0.2,1.4-0.4,2.1-0.6C71.9,82.1,71.8,81.4,71.8,80.8z"/>
<path d="M119.6,99.5c-0.3,1.4-0.6,2.8-0.9,4.1c-1,0-1.9,0-3,0c0.9-5,1.9-9.9,2.8-14.9c1,0.2,2.3-0.9,2.6,1c0.1,0,0.2,0,0.3,0
	c1.2-1.1,2.6-1.7,4.2-0.9c1.6,0.8,1.8,2.3,1.7,3.9C127.3,97.4,124.5,99.9,119.6,99.5z M124.7,93c-0.5-0.8-0.9-1.8-1.3-1.8
	c-0.6,0-1.6,0.4-1.9,0.9c-0.6,1.1-0.8,2.3-1.1,3.6c-0.1,0.5,0.1,1,0.1,1.6c0.7-0.1,1.7,0,2-0.4C123.4,95.7,123.9,94.4,124.7,93z"/>
<path d="M97.6,84c0.9,0,1.6,0,2.3,0c0.2,0,0.4,0.1,0.8,0.1c-0.3,1.9-0.7,3.7-1,5.6c0.8-0.4,1.4-0.8,2.1-1c2.1-0.7,3.7,0.4,3.5,2.6
	c-0.2,2.7-0.8,5.4-1.3,8.1c-1.1,0-2,0-3.1,0c0.4-2,0.8-3.8,1.1-5.7c0.1-0.9,0.8-2.2-0.5-2.6c-1.3-0.4-2,0.9-2.3,1.9
	c-0.5,1.7-0.8,3.4-1.2,5.1c-0.1,0.5-0.2,0.9-0.3,1.4c-1,0-1.9,0-3,0C95.6,94.3,96.6,89.2,97.6,84z"/>
<path d="M151.3,89c-2.3,4.2-4.4,8.4-6.8,12.3c-0.8,1.3-2.4,2.2-3.9,3.5c-0.5-1.3-0.7-2-1-2.9c0.4-0.2,0.7-0.4,1-0.6
	c2.2-1.2,2.5-2,2.1-4.5c-0.5-2.6-1-5.3-1.5-8.1c1.1,0,2,0,3.2,0c0.2,2.2,0.5,4.4,0.7,6.6c0.1,0,0.2,0,0.3,0c0.6-1.5,1.2-3,1.7-4.5
	C148.1,88.4,148.2,88.4,151.3,89z"/>
<path d="M116.4,93c-0.1,4.2-3.1,7.2-6.8,6.7c-1.6-0.2-2.7-1.1-3.2-2.7c-1.1-3.3,1.2-7.5,4.6-8.3C114.2,87.9,116.4,89.7,116.4,93z
	 M108.9,95.2c0.5,0.8,0.8,1.8,1.5,2c1.1,0.5,1.8-0.4,2.1-1.3c0.4-1.2,0.6-2.4,0.7-3.6c0-0.4-0.5-1.2-0.9-1.2
	c-0.5-0.1-1.4,0.1-1.6,0.5C110,92.5,109.6,93.8,108.9,95.2z"/>
<path d="M141.9,84.2c-0.2,0.6-0.3,1.3-0.5,2c-1.7-0.1-2.8,0.5-2.8,2.4c0.6,0.1,1.2,0.1,1.9,0.2c-0.1,0.7-0.2,1.4-0.3,2.1
	c-0.7,0-1.4,0.1-2.1,0.1c-0.4,2-0.8,4-1.1,6c-0.5,2.7-0.5,2.7-3.5,2.2c0.5-2.7,1-5.4,1.5-8.1c-0.4-0.1-0.8-0.2-1.5-0.4
	c0.4-0.7,0.6-1.9,1-2c1.1-0.2,1-0.8,1.3-1.5C136.6,84.4,139.2,83.1,141.9,84.2z"/>
<path d="M86.3,98.9c0.2-0.7,0.4-1.2,0.7-1.9c0.8,0.2,1.5,0.4,2.2,0.4c0.6,0,1.1-0.4,1.6-0.6c-0.3-0.5-0.5-1.1-0.8-1.5
	c-0.2-0.3-0.7-0.4-1-0.7c-1.9-1.5-1.8-3.8,0.2-5.2c1.4-1,3.2-1.1,5.5-0.3c-0.2,0.7-0.4,1.3-0.6,2c-0.8-0.1-1.4-0.3-2-0.2
	c-0.5,0.1-1.1,0.4-1.2,0.7c-0.1,0.3,0.3,0.9,0.6,1.2c0.3,0.3,0.7,0.5,1,0.7c1,0.7,1.7,1.6,1.5,2.9c-0.1,1.4-0.9,2.3-2.2,2.9
	C90.3,99.9,88.1,99.8,86.3,98.9z"/>
<path d="M127.6,99.5c0.7-3.7,1.4-7.2,2.1-10.7c1,0,2,0,3.1,0c-0.7,3.4-1.3,6.7-2,9.9c-0.1,0.3-0.7,0.6-1.1,0.7
	C129,99.6,128.4,99.5,127.6,99.5z"/>
<path d="M129.9,85.4c0.7-0.4,1.3-1.2,2-1.2c0.5,0,1.4,0.8,1.5,1.4c0.2,1.1-0.7,1.8-1.8,1.7c-0.6-0.1-1.1-0.7-1.7-1.1
	C129.9,85.9,129.9,85.7,129.9,85.4z"/>
<path class="st0" d="M64.2,96.2c1,0.5,1.6,0.8,2.2,1c0.4,0.1,1,0,1.2-0.3c0.2-0.3,0-0.9-0.1-1.3c-0.1-0.3-0.5-0.6-0.8-0.8
	c-2.8-1.8-1.9-6,1.2-7.2c1.3-0.5,2.8-0.4,4.6-0.5c-0.5,1.5-0.8,2.4-1.1,3.4c-0.6-0.1-1.1-0.4-1.7-0.3c-0.6,0.1-1.2,0.4-1.8,0.7
	c0.3,0.5,0.4,1.2,0.9,1.5c1.5,1.1,2.7,2.3,2.4,4.3c-0.2,1.6-1,2.8-2.6,3.2c-1.7,0.5-3.2,0.1-4.4-1.1C63.8,98.4,64.2,97.2,64.2,96.2z
	"/>
<path class="st0" d="M70.4,79.8c-0.6,1.1-1.1,2.4-1.9,3.5c-0.4,0.6-1.1,0.9-1.9,1.5C67.1,81.6,68.6,79.9,70.4,79.8z"/>
<path class="st0" d="M71.8,80.8c0.1,0.7,0.1,1.3,0.2,2.1c-0.8,0.2-1.4,0.4-2.1,0.6c-0.1-0.1-0.2-0.2-0.3-0.3
	c0.6-0.9,1.2-1.7,1.8-2.6C71.4,80.6,71.6,80.7,71.8,80.8z"/>
<path class="st0" d="M124.7,93c-0.7,1.4-1.3,2.7-2.1,3.8c-0.3,0.4-1.3,0.3-2,0.4c-0.1-0.5-0.3-1.1-0.1-1.6c0.3-1.2,0.5-2.5,1.1-3.6
	c0.3-0.5,1.3-1,1.9-0.9C123.8,91.2,124.1,92.2,124.7,93z"/>
<path class="st0" d="M108.9,95.2c0.6-1.4,1.1-2.6,1.7-3.7c0.2-0.4,1.1-0.6,1.6-0.5c0.4,0.1,1,0.8,0.9,1.2c-0.1,1.2-0.3,2.5-0.7,3.6
	c-0.3,0.9-1.1,1.8-2.1,1.3C109.8,96.9,109.5,96,108.9,95.2z"/>
<path d="M44,46.3c0.3,0.9,0.5,1.8,0.8,2.6c-0.7,0-1.9,0-3.1,0c1.4-1.1,1.4-5.6,0-7.1c1.3,0,2.5-0.1,3.6,0c1.2,0.1,2.6,0.3,2.6,1.7
	c0,0.9-0.9,1.7-1.5,2.9c0.4,0.4,1.2,1.3,2.1,1.8c1.4,0.8,2.3,0.3,2.4-1.3c0-1,0.1-2.1,0-3.1c-0.1-0.7-0.4-1.4-0.6-2.2
	c1.4,0.1,3,0.1,4.5,0.3c2.1,0.3,3,1.6,3,3.5c0,1.8-1.2,3.2-3.1,3.3c-2.4,0.2-4.8,0.1-7.2,0.1c-0.4,0-0.8-0.4-1.1-0.7
	c-0.6-0.7-1.2-1.4-1.8-2.2C44.4,46.1,44.2,46.2,44,46.3z M52.3,42.5c0,1.7,0,3.4,0,5c0,0.3,0.5,0.9,0.8,0.9c1.2,0.1,2.2-0.2,2.8-1.5
	C57,44.3,55.5,42.3,52.3,42.5z M44.2,42.4c0,1,0,2,0,3c1.3,0.1,2.3-0.1,2.2-1.6C46.4,42.5,45.4,42.3,44.2,42.4z"/>
<path d="M81.3,43.8c-1.1-1.5-1.5-1.6-3.7-1.2c0,0.7,0,1.4,0,2.4c0.8-0.2,1.5-0.4,2.2-0.7c0,0.5,0,1.1,0,1.8c-0.6-0.2-1.3-0.5-2-0.8
	c-0.2,0.1-0.3,0.3-0.5,0.4c0.3,0.8,0.4,2.1,1,2.4c1,0.5,2.3,0.5,3.2-0.8c0,0.6,0,1,0,1.6c-2.8,0-5.6,0-8.3,0c-0.4,0-0.9-0.4-1.2-0.8
	c-0.7-0.7-1.2-1.5-1.9-2.2c-0.2,0.1-0.4,0.2-0.6,0.3c0.3,0.9,0.6,1.8,0.9,2.7c-0.8,0-2,0-3.2,0c1.6-1.2,1.6-5.7,0-7.1
	c1.3,0,2.5-0.1,3.8,0c1.1,0.1,2.2,0.3,2.5,1.7c0.3,1.4-0.7,1.9-2.1,2.5c1,0.9,1.8,1.8,2.7,2.4c1.1,0.7,1.9,0.2,2-1.1
	c0.1-1.2,0.1-2.4,0-3.6c-0.1-0.6-0.5-1.2-0.8-1.9c0.7,0,1.7,0,2.7,0c1,0,2,0,3,0C81.1,42.5,81.2,43,81.3,43.8z M69.7,45.8
	c0.9-0.5,1.7-0.7,2.1-1.2c0.3-0.3,0.2-1.2,0-1.5c-0.5-0.5-1.2-0.6-2.1-1.1C69.7,43.4,69.7,44.3,69.7,45.8z"/>
<path d="M28.3,49.1c-0.7-2.1-1.4-4.1-2.2-6.6c-0.8,2.5-1.6,4.6-2.3,6.8c-1.8-3.1-1.5-7.1-4.2-9.6c1.2,0,2.5,0,3.4,0
	c-0.1,0.8-0.3,1.7-0.1,2.5c0.2,1.2,0.8,2.4,1.5,3.6c0.7-2,1.4-4.1,2.3-6.5c0.8,2.4,1.6,4.5,2.4,7c0.7-1.9,1.3-3.4,1.7-5
	c0.1-0.5-0.4-1.1-0.6-1.6c0.8,0,1.8,0,2.4,0c-0.5,1.1-1.3,2.3-1.7,3.5c-0.8,2-1.4,4-2.1,6C28.6,49.1,28.4,49.1,28.3,49.1z"/>
<path d="M47.3,27.2c0-5.5,4.4-9.8,9.9-9.7c5.5,0.1,9.7,4.4,9.7,9.9c-0.1,5.4-4.4,9.6-9.8,9.6C51.5,37.1,47.2,32.7,47.3,27.2z
	 M66.4,27.3c0-5.1-4.2-9.3-9.4-9.3c-5.1,0-9.4,4.2-9.4,9.3c0,5,4.2,9.2,9.3,9.3C62.1,36.7,66.4,32.4,66.4,27.3z"/>
<path d="M63,48.9c-1.6,0-3,0-4.5,0c2-1.2,2.1-7.8-0.2-9.4c2.1,0.1,3.8,0.1,5.6,0.3c1.6,0.2,2.4,1.2,2.3,2.7
	c-0.1,1.5-1.2,2.1-2.5,2.3c-0.7,0.1-1.3,0.1-2,0.1C61.1,47.3,61.4,48.1,63,48.9z M61.5,44.7c1.2-0.6,2.2-0.8,2.8-1.4
	c0.4-0.4,0.3-1.7-0.1-2.1c-0.6-0.6-1.6-0.7-2.7-1.1C61.5,41.7,61.5,42.9,61.5,44.7z"/>
<path d="M36.4,49.3c-2.4,0-4.3-1.6-4.4-3.8c-0.1-2.1,2-4,4.4-3.9c2.4,0,4.3,1.8,4.3,3.9C40.7,47.6,38.8,49.3,36.4,49.3z M39.2,45.4
	c0-1.9-1.2-3.3-2.8-3.3c-1.6,0-2.8,1.5-2.8,3.4c0,1.9,1.2,3.2,2.9,3.2C38.1,48.7,39.2,47.4,39.2,45.4z"/>
<path d="M87.8,42c0,0.5,0,1.2,0,1.7c-0.5-0.4-1-1.1-1.6-1.3c-0.5-0.2-1.2,0.3-1.7,0.5c0.2,0.5,0.4,1,0.8,1.3c0.4,0.4,1,0.5,1.5,0.8
	c1.6,0.8,2.1,1.7,1.6,2.9c-0.5,1.2-2,1.7-3.5,1.3c-0.5-0.1-1-0.2-1.7-0.3c0-0.6,0-1.4,0-2.6c0.3,0.6,0.4,1,0.7,1.2
	c0.6,0.5,1.2,1,1.9,1.1c0.4,0.1,1.2-0.3,1.4-0.8c0.1-0.2-0.3-1-0.7-1.3c-0.5-0.4-1.3-0.7-1.9-1c-1-0.5-1.8-1.3-1.3-2.5
	c0.4-1.3,1.5-1.4,2.7-1.3C86.5,41.8,87.1,41.9,87.8,42z"/>
<path d="M94.4,43.8c-0.6-0.5-1.1-1.2-1.7-1.5c-0.4-0.2-1.1,0.3-1.6,0.5c0.2,0.5,0.4,1,0.7,1.3c0.5,0.4,1.1,0.6,1.7,0.8
	c1.5,0.8,2,1.8,1.5,3c-0.5,1.1-2,1.6-3.4,1.2c-0.5-0.2-1.1-0.2-1.7-0.3c0-0.6,0-1.3,0-2.4c0.3,0.5,0.4,0.9,0.7,1.1
	c0.8,0.4,1.6,0.9,2.4,1.1c0.3,0.1,0.8-0.4,1-0.8c0.1-0.3-0.1-0.9-0.4-1.1c-0.7-0.5-1.5-0.8-2.3-1.3c-1-0.6-1.7-1.3-1.3-2.5
	c0.4-1.2,1.5-1.4,2.6-1.3c0.6,0.1,1.2,0.2,1.9,0.3C94.4,42.5,94.4,43.1,94.4,43.8z"/>
<path class="st0" d="M52.3,42.5c3.2-0.2,4.6,1.8,3.6,4.4c-0.5,1.3-1.5,1.6-2.8,1.5c-0.3,0-0.8-0.6-0.8-0.9
	C52.3,45.9,52.3,44.2,52.3,42.5z"/>
<path class="st0" d="M44.2,42.4c1.2-0.1,2.2,0,2.2,1.4c0.1,1.4-0.9,1.7-2.2,1.6C44.2,44.4,44.2,43.4,44.2,42.4z"/>
<path class="st0" d="M69.7,45.8c0-1.5,0-2.4,0-3.7c0.9,0.4,1.6,0.6,2.1,1.1c0.3,0.3,0.3,1.2,0,1.5C71.4,45.1,70.6,45.3,69.7,45.8z"
	/>
<path class="st0" d="M66.4,27.3c0,5.1-4.4,9.4-9.4,9.3c-5.1-0.1-9.3-4.3-9.3-9.3c0-5.1,4.2-9.3,9.4-9.3C62.2,18,66.4,22.2,66.4,27.3
	z M58.4,23.8c0.9,2.6,1.8,5.2,2.8,8.2c0.4-1.2,0.6-1.9,0.9-2.6c0.5-1.6,0.9-3.2-0.1-4.6c-0.9-1.3-1.3-2.6,0.2-3.7
	c-3.5-3.1-9.9-1.9-11.5,1.6c0.9,0,1.8,0.1,2.6,0.1c0,0.1,0,0.2,0,0.4c-0.4,0.2-0.7,0.5-1.1,0.7c0.9,2.7,1.8,5.4,2.8,8.2
	c2.5-5.7,1.7-7.2-0.8-9.2c1.9,0,3.6,0,5.7,0C59.1,23.3,58.7,23.5,58.4,23.8z M57.2,28.2c-0.9,2.5-1.6,4.7-2.4,7c1.7,0,3.2,0,5,0
	C58.9,32.7,58.1,30.6,57.2,28.2z M53.3,34.4c-1.2-3.4-2.4-6.6-3.7-10.1C48,28.5,49.6,32.6,53.3,34.4z M61.4,34.1
	c3.5-2.3,5-7.3,3.2-9.5C63.6,27.6,62.5,30.7,61.4,34.1z"/>
<path class="st0" d="M61.5,44.7c0-1.8,0-3,0-4.7c1.1,0.4,2.1,0.5,2.7,1.1c0.4,0.4,0.5,1.7,0.1,2.1C63.7,43.9,62.7,44.1,61.5,44.7z"
	/>
<path class="st0" d="M39.2,45.4c0,2-1.1,3.3-2.7,3.3c-1.7,0-2.9-1.3-2.9-3.2c0-1.8,1.2-3.3,2.8-3.4C38,42.1,39.2,43.5,39.2,45.4z"/>
<path d="M58.4,23.8c0.4-0.2,0.8-0.5,1.5-0.9c-2.1,0-3.8,0-5.7,0c2.5,2,3.3,3.5,0.8,9.2c-1-2.8-1.9-5.5-2.8-8.2
	c0.4-0.2,0.7-0.5,1.1-0.7c0-0.1,0-0.2,0-0.4c-0.9,0-1.7-0.1-2.6-0.1c1.6-3.5,8-4.8,11.5-1.6c-1.5,1.1-1.1,2.4-0.2,3.7
	c1,1.5,0.6,3.1,0.1,4.6c-0.2,0.7-0.5,1.5-0.9,2.6C60.1,29,59.3,26.4,58.4,23.8z"/>
<path d="M57.2,28.2c0.9,2.4,1.6,4.5,2.5,7c-1.8,0-3.3,0-5,0C55.6,32.8,56.4,30.7,57.2,28.2z"/>
<path d="M53.3,34.4c-3.7-1.9-5.3-6-3.7-10.1C50.9,27.8,52.1,31,53.3,34.4z"/>
<path d="M61.4,34.1c1.1-3.4,2.2-6.5,3.2-9.5C66.4,26.8,64.9,31.8,61.4,34.1z"/>
</svg>
